<svg width="400" height="400" viewBox="0 0 400 400" fill="none" xmlns="http://www.w3.org/2000/svg">
<path d="M200 0C88.5714 0 0 88.5714 0 200C0 311.429 88.5714 400 200 400C311.429 400 400 311.429 400 200C400 88.5714 311.429 0 200 0ZM200 371.429C105.714 371.429 28.5714 294.286 28.5714 200C28.5714 105.714 105.714 28.5714 200 28.5714C294.286 28.5714 371.429 105.714 371.429 200C371.429 294.286 294.286 371.429 200 371.429Z" fill="#242424"/>
<path d="M277.143 300L200 222.857L122.857 300L100 277.143L177.143 200L100 122.857L122.857 100L200 177.143L277.143 100L300 122.857L222.857 200L300 277.143L277.143 300Z" fill="#242424"/>
</svg>
