<svg width="150" height="68" viewBox="0 0 150 68" fill="none" xmlns="http://www.w3.org/2000/svg">
<path fill-rule="evenodd" clip-rule="evenodd" d="M8.16039 59.9311C5.9065 59.9311 3.98742 59.1361 2.39125 57.5401C0.795199 55.9503 0 54.0254 0 51.7721V41.509C0 39.2793 0.80109 37.3607 2.39738 35.7586C3.99956 34.1508 5.91864 33.3497 8.16039 33.3497H22.5264C24.7443 33.3497 26.6574 34.1567 28.2715 35.7647C29.8797 37.3787 30.6868 39.2914 30.6868 41.509V51.7721C30.6868 53.9897 29.8797 55.9025 28.2715 57.5163C26.6574 59.1242 24.7443 59.9311 22.5264 59.9311H8.16039ZM22.5264 53.7863C23.1002 53.7863 23.5785 53.595 23.9612 53.2066C24.3497 52.8241 24.5409 52.3459 24.5409 51.7721V41.509C24.5409 41.0308 24.3258 40.5764 23.8953 40.1401C23.459 39.7097 23.0045 39.4946 22.5264 39.4946H8.16039C7.70612 39.4946 7.25763 39.7158 6.80926 40.1581C6.36689 40.6064 6.14565 41.0546 6.14565 41.509V51.7721C6.14565 52.2979 6.34899 52.7643 6.74953 53.1706C7.15608 53.5831 7.62225 53.7863 8.16039 53.7863H22.5264ZM32.9106 67.6898V43.9596C32.9106 42.3398 33.4548 41.0846 34.5368 40.1939C35.5532 39.387 36.8923 38.9866 38.5483 38.9866H45.2619C48.5201 38.9866 50.1462 40.5944 50.1462 43.8042V55.1552C50.1462 57.08 49.4109 58.4368 47.9402 59.2137C46.8283 59.7996 45.208 60.0926 43.068 60.0926C42.4462 60.0926 41.5913 60.0685 40.5032 60.0147C39.4092 59.9609 38.6617 59.9371 38.2673 59.9371V67.6898H32.9106ZM38.1837 45.448V53.4696C38.1837 54.3125 38.5781 54.7309 39.3733 54.7309H43.2473C43.588 54.7309 43.9169 54.6173 44.2457 54.3901C44.5744 54.1631 44.7359 53.8761 44.7359 53.5412V45.4839C44.7359 45.1192 44.5923 44.8204 44.3054 44.5813C44.0184 44.3421 43.6896 44.2227 43.319 44.2227H39.6901C39.3255 44.2227 38.9967 44.3362 38.6918 44.5574C38.351 44.8025 38.1837 45.0954 38.1837 45.448ZM65.6121 38.9866C67.0469 38.9866 68.2067 39.4049 69.0796 40.2476C69.9583 41.0905 70.3949 42.2321 70.3949 43.6788V54.9221C70.3949 56.5359 69.8807 57.7852 68.8526 58.67C67.8839 59.5127 66.5806 59.9311 64.9485 59.9311H57.9778C54.7795 59.9311 53.1774 58.3352 53.1774 55.1494V50.194C53.1774 47.1336 55.4848 45.6035 60.0942 45.6035C60.7698 45.6035 61.6783 45.6391 62.8083 45.7111C63.9382 45.7768 64.6855 45.8125 65.0502 45.8125V44.94C64.7094 44.3004 62.9458 43.9776 59.7594 43.9776C58.7311 43.9776 57.4338 44.0134 55.8615 44.0852C54.2952 44.1509 53.4165 44.1868 53.2249 44.1868V38.9866H65.6121ZM65.0502 53.6311V52.1905C65.0502 51.8617 64.9366 51.5748 64.7155 51.3177C64.4943 51.0607 64.2132 50.9292 63.8785 50.9292H59.8132C59.4904 50.9292 59.1735 51.0488 58.8805 51.2819C58.5816 51.5151 58.4323 51.7959 58.4323 52.1187V53.5772C58.4323 54.3961 59.024 54.8026 60.2017 54.8026H63.6333C64.5778 54.8026 65.0502 54.4141 65.0502 53.6311ZM78.7165 59.9311L73.3899 60.0028V31.2817H78.7165V59.9311Z" fill="#0083BB"/>
<path fill-rule="evenodd" clip-rule="evenodd" d="M83.8126 45.6326L83.8543 49.4708H85.5667V52.1389H83.8901L83.9168 59.9046H81.2812V45.6326H83.8126ZM88.9083 49.4708H91.0377V52.0435C91.0138 52.0435 90.9305 52.0406 90.7846 52.0316C90.6387 52.0228 90.5137 52.0168 90.4092 52.0168C89.647 52.0168 89.2656 52.2043 89.2656 52.5765V59.9046H86.6121V52.0614C86.6121 51.3348 86.8058 50.7303 87.1958 50.248C87.6218 49.7298 88.1905 49.4708 88.9083 49.4708ZM98.5217 49.4708C99.2365 49.4708 99.8143 49.6793 100.249 50.0992C100.687 50.5189 100.904 51.0878 100.904 51.8082V57.4092C100.904 58.2133 100.648 58.8355 100.136 59.2763C99.6536 59.6962 99.0042 59.9046 98.1912 59.9046H94.7187C93.1253 59.9046 92.3272 59.1095 92.3272 57.5224V55.054C92.3272 53.5293 93.4768 52.767 95.773 52.767C96.1094 52.767 96.5623 52.7849 97.1251 52.8207C97.6879 52.8536 98.0603 52.8715 98.2417 52.8715V52.4365C98.0722 52.118 97.1936 51.9572 95.6061 51.9572C95.0939 51.9572 94.4476 51.9751 93.6644 52.0108C92.8841 52.0435 92.4464 52.0614 92.351 52.0614V49.4708H98.5217ZM98.2417 56.7661V56.0486C98.2417 55.8847 98.1853 55.7417 98.075 55.6138C97.9649 55.4858 97.8249 55.4203 97.6581 55.4203H95.6329C95.4722 55.4203 95.3143 55.4799 95.1684 55.596C95.0195 55.712 94.9451 55.8521 94.9451 56.0128V56.7394C94.9451 57.1473 95.2399 57.3498 95.8265 57.3498H97.5361C98.0066 57.3498 98.2417 57.1562 98.2417 56.7661ZM107.212 52.106H105.282C105.127 52.106 104.949 52.1448 104.752 52.2193C104.559 52.5347 104.463 53.592 104.463 55.3933C104.463 56.0872 104.478 56.9745 104.511 58.0585C104.544 59.1453 104.559 59.7586 104.559 59.9046H101.908V51.853C101.908 51.0787 102.14 50.4833 102.605 50.0634C103.055 49.6674 103.665 49.4708 104.439 49.4708H107.787C108.615 49.4708 109.273 49.6702 109.767 50.0722C110.303 50.5159 110.571 51.1413 110.571 51.9481V59.9134L107.841 59.9046V52.7344C107.841 52.5765 107.775 52.4336 107.644 52.3025C107.513 52.1716 107.37 52.106 107.212 52.106ZM111.828 53.3805V51.7815C111.828 51.1085 112.052 50.5547 112.498 50.1199C112.948 49.6881 113.511 49.4708 114.193 49.4708H119.688V52.0614H115.012C114.866 52.0614 114.735 52.1299 114.619 52.2698C114.503 52.4097 114.446 52.5557 114.446 52.7076C114.446 53.1721 114.946 53.4043 115.947 53.4043C116.212 53.4043 116.537 53.3864 116.915 53.3507C117.293 53.318 117.493 53.3002 117.517 53.3002C118.145 53.3002 118.681 53.5563 119.122 54.0684C119.542 54.5567 119.75 55.1196 119.75 55.7596V57.2336C119.75 58.0613 119.53 58.7135 119.086 59.19C118.645 59.6664 118.011 59.9046 117.186 59.9046H111.828V57.2515H116.531C116.653 57.2515 116.772 57.174 116.888 57.0192C117.004 56.8674 117.064 56.7275 117.064 56.6053C117.064 56.1468 116.599 55.9175 115.676 55.9175C115.587 55.9175 115.45 55.9205 115.256 55.9264C115.072 55.9264 114.926 55.9264 114.821 55.9264C113.907 55.9264 113.231 55.7953 112.796 55.5332C112.15 55.1432 111.828 54.4257 111.828 53.3805ZM120.56 63.7697V51.9481C120.56 51.1413 120.831 50.5159 121.37 50.0722C121.876 49.6702 122.544 49.4708 123.369 49.4708H126.713C128.336 49.4708 129.146 50.2718 129.146 51.8709V57.5254C129.146 58.4842 128.78 59.1602 128.047 59.5473C127.493 59.839 126.686 59.9849 125.62 59.9849C125.31 59.9849 124.885 59.973 124.342 59.9463C123.798 59.9194 123.425 59.9074 123.229 59.9074V63.7697H120.56ZM123.187 52.6897V56.6857C123.187 57.1056 123.383 57.3141 123.78 57.3141H125.709C125.879 57.3141 126.043 57.2575 126.207 57.1442C126.371 57.0311 126.451 56.8882 126.451 56.7215V52.7076C126.451 52.5259 126.38 52.3771 126.237 52.2579C126.094 52.1389 125.93 52.0793 125.745 52.0793H123.937C123.756 52.0793 123.592 52.1358 123.44 52.246C123.27 52.368 123.187 52.514 123.187 52.6897ZM139.206 51.9481V57.427C139.206 59.0797 138.218 59.9046 136.24 59.9046H132.961C132.187 59.9046 131.585 59.7051 131.156 59.3032C130.707 58.8893 130.483 58.2967 130.483 57.5224V51.9036C130.483 51.1145 130.722 50.507 131.198 50.0813C131.651 49.6733 132.276 49.4708 133.074 49.4708H136.362C137.193 49.4708 137.863 49.6674 138.37 50.0634C138.926 50.507 139.206 51.1353 139.206 51.9481ZM136.475 56.6083V52.7344C136.475 52.5765 136.41 52.4336 136.279 52.3025C136.148 52.1716 136.005 52.106 135.847 52.106H133.92C133.408 52.106 133.152 52.2996 133.152 52.6897V56.6083C133.152 57.0103 133.363 57.2098 133.789 57.2098H135.689C136.213 57.2098 136.475 57.0103 136.475 56.6083ZM142.566 49.4708H144.695V52.0435C144.671 52.0435 144.588 52.0406 144.442 52.0316C144.296 52.0228 144.171 52.0168 144.067 52.0168C143.304 52.0168 142.923 52.2043 142.923 52.5765V59.9046H140.27V52.0614C140.27 51.3348 140.463 50.7303 140.853 50.248C141.279 49.7298 141.848 49.4708 142.566 49.4708ZM148.245 45.6326L148.287 49.4708H149.999V52.1389H148.323L148.349 59.9046H145.714V45.6326H148.245Z" fill="#35C0E1"/>
<path fill-rule="evenodd" clip-rule="evenodd" d="M127.14 63.0573C127.14 62.7503 127.25 62.4861 127.47 62.2654C127.691 62.044 127.955 61.9338 128.264 61.9338H131.366V62.7799H128.264C128.188 62.7799 128.123 62.8079 128.069 62.8632C128.014 62.9183 127.986 62.9833 127.986 63.0573C127.986 63.2549 128.215 63.3538 128.671 63.3538C128.764 63.3538 128.927 63.3488 129.157 63.3389C129.388 63.3299 129.566 63.325 129.692 63.325C130.196 63.325 130.576 63.3917 130.83 63.5249C131.173 63.7051 131.344 64.0221 131.344 64.4758C131.344 64.7828 131.233 65.0461 131.01 65.2669C130.787 65.4867 130.522 65.5969 130.215 65.5969H127.133V64.7481H130.215C130.288 64.7481 130.353 64.7194 130.411 64.6625C130.469 64.6049 130.498 64.5415 130.498 64.4708C130.498 64.2709 130.275 64.1711 129.832 64.1711C129.734 64.1711 129.563 64.1769 129.32 64.1876C129.076 64.1991 128.887 64.2049 128.754 64.2049C128.26 64.2049 127.889 64.1373 127.639 64.0024C127.306 63.8222 127.14 63.5076 127.14 63.0573ZM131.672 66.6629V63.3949C131.672 63.1719 131.747 62.999 131.896 62.8763C132.036 62.7652 132.221 62.7101 132.449 62.7101H133.373C133.822 62.7101 134.046 62.9315 134.046 63.3736V64.9367C134.046 65.2019 133.945 65.3888 133.742 65.4956C133.589 65.5764 133.366 65.6167 133.071 65.6167C132.986 65.6167 132.868 65.6134 132.718 65.606C132.568 65.5986 132.465 65.5954 132.41 65.5954V66.6629H131.672ZM132.399 63.5998V64.7046C132.399 64.8206 132.453 64.8784 132.562 64.8784H133.096C133.143 64.8784 133.188 64.8626 133.233 64.8314C133.279 64.8002 133.301 64.7606 133.301 64.7143V63.6048C133.301 63.5546 133.281 63.5134 133.242 63.4805C133.202 63.4477 133.157 63.4312 133.106 63.4312H132.606C132.556 63.4312 132.511 63.4467 132.469 63.4772C132.422 63.511 132.399 63.5513 132.399 63.5998ZM135.395 65.182C135.395 65.3063 135.35 65.4133 135.262 65.504C135.173 65.5954 135.067 65.6405 134.943 65.6405C134.815 65.6405 134.704 65.5978 134.611 65.5114C134.517 65.4258 134.471 65.3187 134.471 65.1919C134.471 65.0586 134.514 64.9457 134.601 64.8527C134.687 64.7606 134.798 64.7143 134.931 64.7143C135.06 64.7143 135.169 64.7597 135.26 64.8511C135.349 64.9418 135.395 65.0519 135.395 65.182ZM138.583 64.861H140.036V65.5945H138.101C137.935 65.5945 137.802 65.5385 137.702 65.4258C137.601 65.3129 137.551 65.1738 137.551 65.0083C137.551 64.8363 137.781 64.545 138.243 64.1334C138.523 63.8978 138.802 63.664 139.082 63.4312H137.621V62.7101H139.476C139.648 62.7101 139.791 62.7545 139.905 62.8426C140.031 62.9421 140.093 63.0772 140.093 63.2475C140.093 63.4039 140.031 63.5398 139.905 63.655L138.583 64.861ZM144.504 63.3949V64.9096C144.504 65.3663 144.231 65.5945 143.684 65.5945H142.778C142.564 65.5945 142.398 65.5393 142.279 65.4281C142.155 65.3138 142.093 65.15 142.093 64.936V63.3826C142.093 63.1645 142.159 62.9965 142.291 62.8787C142.416 62.766 142.589 62.7101 142.809 62.7101H143.718C143.948 62.7101 144.133 62.7644 144.273 62.8739C144.427 62.9965 144.504 63.1703 144.504 63.3949ZM143.749 64.6831V63.6122C143.749 63.5686 143.731 63.529 143.695 63.4928C143.659 63.4567 143.619 63.4386 143.576 63.4386H143.043C142.902 63.4386 142.831 63.4921 142.831 63.5998V64.6831C142.831 64.7944 142.889 64.8494 143.007 64.8494H143.532C143.677 64.8494 143.749 64.7944 143.749 64.6831ZM145.804 65.182C145.804 65.3063 145.76 65.4133 145.672 65.504C145.583 65.5954 145.477 65.6405 145.353 65.6405C145.225 65.6405 145.114 65.5978 145.021 65.5114C144.927 65.4258 144.881 65.3187 144.881 65.1919C144.881 65.0586 144.924 64.9457 145.011 64.8527C145.097 64.7606 145.208 64.7143 145.341 64.7143C145.47 64.7143 145.579 64.7597 145.67 64.8511C145.759 64.9418 145.804 65.0519 145.804 65.182ZM148.672 63.3949V64.9096C148.672 65.3663 148.399 65.5945 147.852 65.5945H146.946C146.732 65.5945 146.565 65.5393 146.447 65.4281C146.323 65.3138 146.261 65.15 146.261 64.936V63.3826C146.261 63.1645 146.327 62.9965 146.458 62.8787C146.583 62.766 146.756 62.7101 146.977 62.7101H147.886C148.116 62.7101 148.301 62.7644 148.441 62.8739C148.595 62.9965 148.672 63.1703 148.672 63.3949ZM147.917 64.6831V63.6122C147.917 63.5686 147.899 63.529 147.863 63.4928C147.827 63.4567 147.787 63.4386 147.744 63.4386H147.211C147.069 63.4386 146.998 63.4921 146.998 63.5998V64.6831C146.998 64.7944 147.057 64.8494 147.175 64.8494H147.7C147.845 64.8494 147.917 64.7944 147.917 64.6831ZM149.972 65.182C149.972 65.3063 149.928 65.4133 149.84 65.504C149.751 65.5954 149.644 65.6405 149.521 65.6405C149.392 65.6405 149.281 65.5978 149.188 65.5114C149.094 65.4258 149.048 65.3187 149.048 65.1919C149.048 65.0586 149.091 64.9457 149.178 64.8527C149.265 64.7606 149.375 64.7143 149.509 64.7143C149.638 64.7143 149.747 64.7597 149.837 64.8511C149.927 64.9418 149.972 65.0519 149.972 65.182Z" fill="#1B1918"/>
<path d="M105.809 3.72469L109.836 1.9126L116.078 2.81864L130.172 14.6979L131.883 19.8322L115.575 40.7719H108.226L93.4268 29.7987L92.2188 26.0738L92.6214 21.1409L105.809 3.72469Z" fill="#35C0E1"/>
<path d="M96.5452 19.5302C100.632 12.5064 102.495 11.8214 106.411 8.35558L107.216 7.65088L119.7 14.1945L123.324 19.9328L114.465 33.7249L109.532 36.5437L105.102 36.0403L95.5385 28.1879L94.6325 25.0671V22.7825C93.3325 24.9441 94.6325 22.5503 94.6325 22.5503V22.7825C95.0137 22.1485 95.6185 21.1229 96.5452 19.5302Z" fill="#FFED00"/>
<path d="M115.676 18.6242L107.119 12.6846L103.696 14.396L99.7702 18.8256L96.75 23.2551L97.052 25.1679L97.5554 26.678L104.401 32.1142L107.119 32.5169C108.73 31.2417 112.012 28.6511 112.253 28.4901C112.495 28.329 114.972 23.8591 116.18 21.6444L115.676 18.6242Z" fill="#E11824"/>
<path d="M110.91 0.183697C109.308 0.54863 107.389 1.56409 106.215 2.69061C105.659 3.23008 103.804 5.499 102.09 7.72031C100.377 9.94163 97.7599 13.3529 96.2529 15.3045C94.7618 17.2403 93.2707 19.2712 92.9376 19.8265C90.7644 23.3965 91.272 28.7276 94.0797 31.8534C94.5239 32.3452 96.7605 34.2016 99.0447 35.9787C101.345 37.7557 104.026 39.8342 105.025 40.6117C106.865 42.0397 107.96 42.6744 109.482 43.1979C110.18 43.4359 110.783 43.4994 112.496 43.4835C114.368 43.4677 114.781 43.4201 115.796 43.0552C118.651 42.0556 119.365 41.3733 124.346 34.8521C125.139 33.7891 130.025 27.4583 131.389 25.6971C132.626 24.1105 133.245 23.0474 133.705 21.7305C134.069 20.6674 134.133 20.239 134.117 18.6682C134.117 15.7488 133.292 13.4323 131.595 11.5442C131.119 11.0206 128.851 9.1483 126.566 7.38712C124.282 5.61006 121.808 3.69021 121.062 3.11901C117.905 0.62796 116.605 0.0726318 113.765 0.0091629C112.576 -0.0225677 111.576 0.025032 110.91 0.183697ZM113.432 2.88101C113.987 3.02381 114.844 3.34114 115.336 3.59501C116.525 4.22967 125.329 10.9412 126.566 12.1471C129.311 14.8444 129.913 19.652 127.883 22.8411C127.106 24.0787 117.905 36.1215 117.049 37.0259C115.637 38.5332 114.083 39.2789 111.735 39.6121C110.783 39.739 110.228 39.7232 109.229 39.5486C107.008 39.1678 107.103 39.2154 98.2199 32.4087C97.0461 31.5043 95.6977 30.3619 95.2377 29.87C92.6521 27.141 92.2873 22.3493 94.4287 19.176C95.8722 17.0499 104.977 5.27686 105.564 4.81673C107.912 2.91275 110.672 2.23048 113.432 2.88101Z" fill="#1B1918"/>
<path d="M107.707 6.38749C106.042 6.78415 104.947 7.51402 103.646 9.08481C101.489 11.7028 95.2234 19.9851 94.7793 20.8419C93.4627 23.2854 93.8275 26.6491 95.6517 28.9021C96.3814 29.8065 104.487 36.1214 105.709 36.7402C106.216 36.9941 107.12 37.2956 107.739 37.4066C109.849 37.7716 112.403 37.0734 113.925 35.7089C114.528 35.1694 122.396 25.1259 123.475 23.5234C125.204 20.9847 124.934 16.9546 122.888 14.5905C122.253 13.8606 114.433 7.72028 113.291 7.05389C111.752 6.14949 109.658 5.91149 107.707 6.38749ZM109.405 9.16414C109.928 9.25934 110.674 9.49734 111.086 9.7036C112.022 10.1796 118.748 15.3997 119.446 16.193C121.064 18.0494 121.46 20.9371 120.382 23.1108C119.985 23.92 113.069 32.9957 112.133 33.9477C111.784 34.2809 111.038 34.7886 110.467 35.0584C109.468 35.5344 109.294 35.5661 107.66 35.5661C105.978 35.5661 105.883 35.5502 104.963 35.0425C104.44 34.7569 103.186 33.8842 102.187 33.1068C101.188 32.3135 99.538 31.0283 98.5228 30.2508C96.6193 28.7752 96.1276 28.204 95.4931 26.8395C95.1758 26.1572 95.1282 25.7923 95.1282 24.3008C95.1282 22.6666 95.16 22.4921 95.6041 21.6511C96.1434 20.6198 102.869 11.798 103.869 10.7984C104.678 9.9892 105.947 9.35454 107.105 9.16414C108.326 8.97374 108.358 8.97374 109.405 9.16414Z" fill="#E11824"/>
<path d="M105.773 11.6395C104.472 12.0203 103.711 12.6867 102.077 14.8286C101.22 15.9393 99.7451 17.8433 98.7934 19.065C97.8416 20.2867 96.8898 21.6671 96.6678 22.1273C96.3188 22.8889 96.2871 23.1427 96.3505 24.4279C96.4298 26.078 96.8264 27.0776 97.7781 27.982C98.7775 28.934 104.012 32.9483 104.726 33.2973C105.678 33.7733 107.565 33.8844 108.676 33.5036C110.23 32.9959 110.326 32.8848 115.64 25.9828C117.464 23.6187 117.86 22.9206 118.066 21.7147C118.479 19.4141 117.083 17.0658 113.926 14.7652C111.214 12.7819 109.802 11.8457 109.12 11.6236C108.184 11.3063 106.804 11.3063 105.773 11.6395ZM108.232 14.7334C109.215 15.2412 112.911 17.9702 113.768 18.827C114.196 19.2554 114.561 19.8107 114.688 20.1915C114.973 21.1435 114.926 22.4446 114.577 23.1903C114.402 23.5394 113.07 25.2847 111.595 27.0776C109.183 30.0129 108.834 30.3779 107.978 30.8063C107.201 31.1871 106.852 31.2664 105.916 31.2664C104.567 31.2664 104.393 31.1871 101.553 29.1561C98.0637 26.6651 97.4292 25.8718 97.4292 23.9519C97.4292 22.8095 97.8257 22.1431 100.57 18.7953C103.917 14.7017 104.282 14.4161 106.407 14.4002C107.28 14.3844 107.692 14.4637 108.232 14.7334Z" fill="white"/>
<path d="M104.459 16.1239C103.671 16.3551 103.21 16.7597 102.221 18.0601C101.702 18.7344 100.809 19.8903 100.233 20.632C99.6569 21.3737 99.0807 22.2118 98.9463 22.4911C98.735 22.9535 98.7158 23.1076 98.7542 23.8879C98.8022 24.8897 99.0423 25.4965 99.6185 26.0456C100.224 26.6236 103.393 29.0606 103.825 29.2726C104.401 29.5615 105.544 29.629 106.216 29.3978C107.157 29.0895 107.215 29.0221 110.432 24.8319C111.536 23.3966 111.776 22.9728 111.901 22.2407C112.151 20.8439 111.306 19.4183 109.395 18.0215C107.753 16.8175 106.898 16.2491 106.485 16.1143C105.918 15.9216 105.083 15.9216 104.459 16.1239ZM105.947 18.0023C106.543 18.3105 108.78 19.9674 109.299 20.4875C109.558 20.7476 109.779 21.0847 109.856 21.3159C110.029 21.8939 110 22.6838 109.788 23.1365C109.683 23.3484 108.876 24.408 107.983 25.4965C106.523 27.2786 106.312 27.5001 105.793 27.7602C105.323 27.9914 105.112 28.0396 104.545 28.0396C103.729 28.0396 103.623 27.9914 101.904 26.7584C99.7914 25.2461 99.4072 24.7644 99.4072 23.5989C99.4072 22.9053 99.6473 22.5008 101.309 20.4683C103.335 17.983 103.556 17.8096 104.843 17.8C105.371 17.7904 105.621 17.8385 105.947 18.0023Z" fill="white"/>
</svg>
