<svg width="150" height="68" viewBox="0 0 150 68" fill="none" xmlns="http://www.w3.org/2000/svg">
<path fill-rule="evenodd" clip-rule="evenodd" d="M8.1603 59.9303C5.90644 59.9303 3.98738 59.1353 2.39123 57.5393C0.795191 55.9496 0 54.0247 0 51.7714V41.5084C0 39.2787 0.801082 37.3601 2.39735 35.7581C3.99951 34.1503 5.91857 33.3492 8.1603 33.3492H22.5262C24.7441 33.3492 26.6571 34.1562 28.2712 35.7642C29.8794 37.3781 30.6865 39.2909 30.6865 41.5084V51.7714C30.6865 53.989 29.8794 55.9017 28.2712 57.5155C26.6571 59.1234 24.7441 59.9303 22.5262 59.9303H8.1603ZM22.5262 53.7856C23.1 53.7856 23.5783 53.5943 23.9609 53.2058C24.3494 52.8234 24.5406 52.3452 24.5406 51.7714V41.5084C24.5406 41.0302 24.3255 40.5758 23.8951 40.1395C23.4587 39.7091 23.0042 39.494 22.5262 39.494H8.1603C7.70604 39.494 7.25756 39.7153 6.80919 40.1575C6.36682 40.6058 6.14558 41.054 6.14558 41.5084V51.7714C6.14558 52.2972 6.34892 52.7635 6.74946 53.1699C7.15601 53.5824 7.62217 53.7856 8.1603 53.7856H22.5262ZM32.9103 67.6889V43.959C32.9103 42.3392 33.4544 41.0841 34.5365 40.1933C35.5528 39.3864 36.8919 38.986 38.5479 38.986H45.2614C48.5196 38.986 50.1456 40.5938 50.1456 43.8036V55.1545C50.1456 57.0793 49.4104 58.436 47.9397 59.213C46.8278 59.7988 45.2076 60.0918 43.0675 60.0918C42.4457 60.0918 41.5908 60.0677 40.5028 60.0139C39.4088 59.9601 38.6613 59.9363 38.2669 59.9363V67.6889H32.9103ZM38.1833 45.4473V53.4689C38.1833 54.3117 38.5777 54.7301 39.3729 54.7301H43.2468C43.5875 54.7301 43.9164 54.6166 44.2452 54.3894C44.5739 54.1624 44.7354 53.8753 44.7354 53.5405V45.4833C44.7354 45.1186 44.5918 44.8198 44.3049 44.5807C44.018 44.3414 43.6892 44.2221 43.3186 44.2221H39.6897C39.325 44.2221 38.9963 44.3356 38.6914 44.5568C38.3506 44.8019 38.1833 45.0948 38.1833 45.4473ZM65.6114 38.986C67.0462 38.986 68.206 39.4043 69.0788 40.2471C69.9575 41.0899 70.3941 42.2315 70.3941 43.6782V54.9214C70.3941 56.5352 69.8799 57.7844 68.8518 58.6693C67.8832 59.5119 66.5799 59.9303 64.9478 59.9303H57.9771C54.7789 59.9303 53.1768 58.3344 53.1768 55.1486V50.1933C53.1768 47.133 55.4843 45.6028 60.0935 45.6028C60.7691 45.6028 61.6777 45.6385 62.8077 45.7105C63.9375 45.7762 64.6848 45.8119 65.0495 45.8119V44.9393C64.7087 44.2997 62.9451 43.977 59.7587 43.977C58.7305 43.977 57.4332 44.0128 55.8609 44.0846C54.2947 44.1503 53.4159 44.1862 53.2244 44.1862V38.986H65.6114ZM65.0495 53.6303V52.1898C65.0495 51.8609 64.9359 51.5741 64.7148 51.317C64.4936 51.06 64.2125 50.9285 63.8778 50.9285H59.8126C59.4898 50.9285 59.1729 51.0481 58.8799 51.2812C58.581 51.5144 58.4316 51.7952 58.4316 52.118V53.5765C58.4316 54.3954 59.0234 54.8018 60.2011 54.8018H63.6327C64.5771 54.8018 65.0495 54.4134 65.0495 53.6303ZM78.7157 59.9303L73.3891 60.002V31.2812H78.7157V59.9303Z" fill="white"/>
<path fill-rule="evenodd" clip-rule="evenodd" d="M83.8125 45.6318L83.8542 49.47H85.5667V52.1381H83.8901L83.9168 59.9037H81.2812V45.6318H83.8125ZM88.9082 49.47H91.0376V52.0427C91.0137 52.0427 90.9304 52.0398 90.7845 52.0308C90.6386 52.022 90.5136 52.016 90.4091 52.016C89.6469 52.016 89.2655 52.2035 89.2655 52.5757V59.9037H86.6121V52.0606C86.6121 51.334 86.8058 50.7295 87.1957 50.2472C87.6217 49.729 88.1904 49.47 88.9082 49.47ZM98.5216 49.47C99.2363 49.47 99.8141 49.6785 100.249 50.0984C100.687 50.5181 100.904 51.087 100.904 51.8074V57.4084C100.904 58.2124 100.648 58.8347 100.136 59.2754C99.6534 59.6953 99.004 59.9037 98.191 59.9037H94.7185C93.1252 59.9037 92.3271 59.1086 92.3271 57.5216V55.0531C92.3271 53.5285 93.4766 52.7662 95.7728 52.7662C96.1093 52.7662 96.5621 52.7841 97.125 52.8199C97.6877 52.8528 98.0601 52.8707 98.2415 52.8707V52.4357C98.072 52.1172 97.1934 51.9564 95.606 51.9564C95.0938 51.9564 94.4475 51.9743 93.6643 52.01C92.884 52.0427 92.4463 52.0606 92.3509 52.0606V49.47H98.5216ZM98.2415 56.7653V56.0477C98.2415 55.8839 98.1851 55.7409 98.0748 55.613C97.9647 55.4849 97.8247 55.4194 97.6579 55.4194H95.6327C95.472 55.4194 95.3142 55.479 95.1682 55.5952C95.0193 55.7112 94.945 55.8512 94.945 56.0119V56.7385C94.945 57.1464 95.2397 57.3489 95.8264 57.3489H97.5359C98.0064 57.3489 98.2415 57.1554 98.2415 56.7653ZM107.212 52.1052H105.282C105.127 52.1052 104.949 52.144 104.752 52.2185C104.558 52.5339 104.463 53.5912 104.463 55.3925C104.463 56.0863 104.478 56.9736 104.511 58.0576C104.543 59.1444 104.558 59.7578 104.558 59.9037H101.908V51.8522C101.908 51.0779 102.14 50.4825 102.605 50.0626C103.055 49.6666 103.665 49.47 104.439 49.47H107.787C108.615 49.47 109.273 49.6694 109.767 50.0715C110.303 50.5152 110.571 51.1405 110.571 51.9473V59.9125L107.84 59.9037V52.7335C107.84 52.5757 107.775 52.4328 107.644 52.3017C107.513 52.1708 107.37 52.1052 107.212 52.1052ZM111.828 53.3797V51.7807C111.828 51.1077 112.051 50.5539 112.498 50.1192C112.948 49.6874 113.511 49.47 114.193 49.47H119.687V52.0606H115.012C114.866 52.0606 114.735 52.1291 114.619 52.269C114.502 52.4089 114.446 52.5549 114.446 52.7068C114.446 53.1712 114.946 53.4035 115.947 53.4035C116.212 53.4035 116.536 53.3856 116.914 53.3499C117.293 53.3172 117.492 53.2994 117.516 53.2994C118.145 53.2994 118.681 53.5555 119.121 54.0676C119.541 54.5558 119.75 55.1187 119.75 55.7588V57.2328C119.75 58.0605 119.529 58.7126 119.086 59.1891C118.645 59.6655 118.011 59.9037 117.186 59.9037H111.828V57.2507H116.53C116.653 57.2507 116.772 57.1732 116.888 57.0184C117.004 56.8666 117.064 56.7266 117.064 56.6045C117.064 56.1459 116.599 55.9166 115.676 55.9166C115.586 55.9166 115.449 55.9197 115.256 55.9256C115.071 55.9256 114.925 55.9256 114.821 55.9256C113.907 55.9256 113.231 55.7945 112.796 55.5324C112.149 55.1424 111.828 54.4249 111.828 53.3797ZM120.56 63.7688V51.9473C120.56 51.1405 120.831 50.5152 121.37 50.0715C121.876 49.6694 122.543 49.47 123.368 49.47H126.713C128.336 49.47 129.146 50.271 129.146 51.8701V57.5245C129.146 58.4833 128.78 59.1593 128.047 59.5465C127.493 59.8381 126.686 59.984 125.62 59.984C125.31 59.984 124.884 59.9721 124.342 59.9454C123.797 59.9185 123.425 59.9065 123.228 59.9065V63.7688H120.56ZM123.186 52.6889V56.6848C123.186 57.1047 123.383 57.3132 123.779 57.3132H125.709C125.879 57.3132 126.042 57.2567 126.206 57.1434C126.37 57.0303 126.451 56.8873 126.451 56.7206V52.7068C126.451 52.5251 126.379 52.3763 126.236 52.2571C126.093 52.1381 125.929 52.0785 125.745 52.0785H123.937C123.755 52.0785 123.592 52.135 123.44 52.2452C123.27 52.3672 123.186 52.5132 123.186 52.6889ZM139.206 51.9473V57.4262C139.206 59.0788 138.217 59.9037 136.24 59.9037H132.961C132.186 59.9037 131.585 59.7042 131.156 59.3023C130.706 58.8884 130.483 58.2958 130.483 57.5216V51.9028C130.483 51.1137 130.721 50.5062 131.198 50.0805C131.65 49.6725 132.276 49.47 133.074 49.47H136.362C137.193 49.47 137.863 49.6666 138.369 50.0626C138.926 50.5062 139.206 51.1345 139.206 51.9473ZM136.475 56.6074V52.7335C136.475 52.5757 136.409 52.4328 136.278 52.3017C136.147 52.1708 136.004 52.1052 135.847 52.1052H133.92C133.407 52.1052 133.151 52.2988 133.151 52.6889V56.6074C133.151 57.0094 133.363 57.209 133.789 57.209H135.689C136.213 57.209 136.475 57.0094 136.475 56.6074ZM142.565 49.47H144.694V52.0427C144.671 52.0427 144.587 52.0398 144.441 52.0308C144.295 52.022 144.17 52.016 144.066 52.016C143.304 52.016 142.922 52.2035 142.922 52.5757V59.9037H140.269V52.0606C140.269 51.334 140.463 50.7295 140.853 50.2472C141.279 49.729 141.847 49.47 142.565 49.47ZM148.244 45.6318L148.286 49.47H149.998V52.1381H148.322L148.349 59.9037H145.713V45.6318H148.244Z" fill="white"/>
<path fill-rule="evenodd" clip-rule="evenodd" d="M127.14 63.0566C127.14 62.7496 127.25 62.4854 127.47 62.2647C127.691 62.0432 127.955 61.9331 128.264 61.9331H131.366V62.7792H128.264C128.188 62.7792 128.123 62.8072 128.069 62.8624C128.014 62.9176 127.986 62.9826 127.986 63.0566C127.986 63.2542 128.215 63.353 128.671 63.353C128.764 63.353 128.927 63.3481 129.157 63.3382C129.388 63.3291 129.566 63.3243 129.692 63.3243C130.196 63.3243 130.576 63.391 130.83 63.5242C131.173 63.7044 131.344 64.0214 131.344 64.4751C131.344 64.782 131.233 65.0454 131.01 65.2661C130.787 65.4859 130.522 65.5962 130.215 65.5962H127.133V64.7474H130.215C130.288 64.7474 130.353 64.7186 130.411 64.6617C130.469 64.6042 130.498 64.5408 130.498 64.47C130.498 64.2701 130.275 64.1703 129.832 64.1703C129.733 64.1703 129.563 64.1761 129.32 64.1868C129.076 64.1984 128.887 64.2042 128.754 64.2042C128.26 64.2042 127.889 64.1365 127.639 64.0017C127.306 63.8215 127.14 63.5069 127.14 63.0566ZM131.672 66.6621V63.3941C131.672 63.1712 131.747 62.9983 131.896 62.8755C132.036 62.7644 132.221 62.7093 132.449 62.7093H133.373C133.822 62.7093 134.046 62.9308 134.046 63.3728V64.936C134.046 65.2011 133.945 65.388 133.742 65.4949C133.589 65.5757 133.366 65.6159 133.071 65.6159C132.986 65.6159 132.868 65.6126 132.718 65.6052C132.567 65.5978 132.464 65.5946 132.41 65.5946V66.6621H131.672ZM132.399 63.5991V64.7038C132.399 64.8198 132.453 64.8777 132.562 64.8777H133.096C133.143 64.8777 133.188 64.8619 133.233 64.8307C133.279 64.7994 133.301 64.7599 133.301 64.7136V63.604C133.301 63.5539 133.281 63.5126 133.242 63.4798C133.202 63.4469 133.157 63.4304 133.106 63.4304H132.606C132.556 63.4304 132.511 63.446 132.469 63.4765C132.422 63.5103 132.399 63.5506 132.399 63.5991ZM135.394 65.1812C135.394 65.3056 135.35 65.4125 135.262 65.5032C135.173 65.5946 135.067 65.6397 134.943 65.6397C134.815 65.6397 134.704 65.597 134.611 65.5106C134.517 65.425 134.471 65.3179 134.471 65.1911C134.471 65.0579 134.513 64.9449 134.601 64.852C134.687 64.7599 134.798 64.7136 134.931 64.7136C135.06 64.7136 135.169 64.7589 135.26 64.8503C135.349 64.941 135.394 65.0512 135.394 65.1812ZM138.583 64.8602H140.036V65.5937H138.101C137.935 65.5937 137.802 65.5377 137.701 65.425C137.601 65.3122 137.551 65.1731 137.551 65.0076C137.551 64.8355 137.781 64.5442 138.243 64.1327C138.523 63.8971 138.802 63.6633 139.082 63.4304H137.621V62.7093H139.476C139.648 62.7093 139.791 62.7537 139.905 62.8418C140.03 62.9414 140.093 63.0765 140.093 63.2468C140.093 63.4032 140.03 63.539 139.905 63.6542L138.583 64.8602ZM144.504 63.3941V64.9089C144.504 65.3655 144.231 65.5937 143.684 65.5937H142.778C142.564 65.5937 142.397 65.5386 142.279 65.4274C142.155 65.313 142.093 65.1493 142.093 64.9353V63.3819C142.093 63.1637 142.159 62.9958 142.29 62.878C142.416 62.7653 142.588 62.7093 142.809 62.7093H143.718C143.948 62.7093 144.133 62.7636 144.273 62.8732C144.427 62.9958 144.504 63.1695 144.504 63.3941ZM143.749 64.6824V63.6115C143.749 63.5679 143.731 63.5283 143.695 63.492C143.659 63.456 143.619 63.4378 143.576 63.4378H143.043C142.901 63.4378 142.831 63.4913 142.831 63.5991V64.6824C142.831 64.7937 142.889 64.8487 143.007 64.8487H143.532C143.677 64.8487 143.749 64.7937 143.749 64.6824ZM145.804 65.1812C145.804 65.3056 145.76 65.4125 145.672 65.5032C145.583 65.5946 145.477 65.6397 145.353 65.6397C145.225 65.6397 145.114 65.597 145.02 65.5106C144.927 65.425 144.881 65.3179 144.881 65.1911C144.881 65.0579 144.923 64.9449 145.011 64.852C145.097 64.7599 145.207 64.7136 145.341 64.7136C145.47 64.7136 145.579 64.7589 145.669 64.8503C145.759 64.941 145.804 65.0512 145.804 65.1812ZM148.672 63.3941V64.9089C148.672 65.3655 148.399 65.5937 147.852 65.5937H146.946C146.731 65.5937 146.565 65.5386 146.447 65.4274C146.322 65.313 146.261 65.1493 146.261 64.9353V63.3819C146.261 63.1637 146.326 62.9958 146.458 62.878C146.583 62.7653 146.756 62.7093 146.977 62.7093H147.886C148.115 62.7093 148.301 62.7636 148.441 62.8732C148.595 62.9958 148.672 63.1695 148.672 63.3941ZM147.917 64.6824V63.6115C147.917 63.5679 147.899 63.5283 147.863 63.492C147.826 63.456 147.787 63.4378 147.743 63.4378H147.211C147.069 63.4378 146.998 63.4913 146.998 63.5991V64.6824C146.998 64.7937 147.057 64.8487 147.174 64.8487H147.7C147.845 64.8487 147.917 64.7937 147.917 64.6824ZM149.972 65.1812C149.972 65.3056 149.927 65.4125 149.839 65.5032C149.751 65.5946 149.644 65.6397 149.521 65.6397C149.392 65.6397 149.281 65.597 149.188 65.5106C149.094 65.425 149.048 65.3179 149.048 65.1911C149.048 65.0579 149.091 64.9449 149.178 64.852C149.265 64.7599 149.375 64.7136 149.508 64.7136C149.638 64.7136 149.746 64.7589 149.837 64.8503C149.927 64.941 149.972 65.0512 149.972 65.1812Z" fill="white"/>
<path d="M110.906 0.18367C109.304 0.548599 107.384 1.56405 106.211 2.69056C105.655 3.23002 103.8 5.49891 102.086 7.72021C100.373 9.9415 97.7559 13.3528 96.249 15.3043C94.7579 17.24 93.2668 19.2709 92.9337 19.8263C90.7605 23.3962 91.2681 28.7273 94.0758 31.853C94.52 32.3449 96.7566 34.2012 99.0408 35.9783C101.341 37.7553 104.022 39.8338 105.021 40.6112C106.861 42.0392 107.955 42.6739 109.478 43.1975C110.176 43.4355 110.779 43.4989 112.492 43.4831C114.364 43.4672 114.776 43.4196 115.792 43.0547C118.647 42.0551 119.361 41.3728 124.341 34.8517C125.135 33.7887 130.02 27.458 131.384 25.6968C132.622 24.1102 133.24 23.0471 133.7 21.7302C134.065 20.6672 134.129 20.2388 134.113 18.668C134.113 15.7486 133.288 13.4321 131.591 11.544C131.115 11.0204 128.846 9.14818 126.562 7.38701C124.278 5.60998 121.803 3.69014 121.058 3.11895C117.901 0.62793 116.601 0.0726051 113.761 0.00914001C112.571 -0.0225906 111.572 0.0250092 110.906 0.18367ZM113.428 2.88096C113.983 3.02375 114.84 3.34108 115.332 3.59494C116.521 4.2296 125.325 10.9411 126.562 12.1469C129.306 14.8442 129.909 19.6517 127.879 22.8409C127.102 24.0785 117.901 36.1211 117.045 37.0254C115.633 38.5327 114.078 39.2785 111.731 39.6117C110.779 39.7386 110.224 39.7227 109.224 39.5482C107.004 39.1674 107.099 39.215 98.2159 32.4083C97.0421 31.5039 95.6938 30.3616 95.2338 29.8697C92.6482 27.1407 92.2833 22.349 94.4248 19.1757C95.8683 17.0496 104.973 5.27678 105.56 4.81666C107.908 2.91269 110.668 2.23043 113.428 2.88096Z" fill="white"/>
<path d="M107.703 6.38733C106.038 6.78399 104.943 7.51385 103.642 9.08462C101.485 11.7026 95.2195 19.9848 94.7753 20.8416C93.4588 23.285 93.8236 26.6487 95.6478 28.9017C96.3774 29.8061 104.483 36.121 105.705 36.7397C106.212 36.9936 107.116 37.2951 107.735 37.4061C109.845 37.7711 112.399 37.0729 113.921 35.7084C114.524 35.169 122.392 25.1255 123.471 23.523C125.2 20.9844 124.93 16.9543 122.884 14.5903C122.249 13.8604 114.429 7.72011 113.287 7.05372C111.748 6.14933 109.654 5.91134 107.703 6.38733ZM109.401 9.16395C109.924 9.25915 110.67 9.49714 111.082 9.70341C112.018 10.1794 118.744 15.3994 119.442 16.1928C121.059 18.0491 121.456 20.9368 120.377 23.1105C119.981 23.9197 113.065 32.9953 112.129 33.9473C111.78 34.2805 111.034 34.7882 110.463 35.0579C109.464 35.5339 109.29 35.5656 107.656 35.5656C105.974 35.5656 105.879 35.5498 104.959 35.042C104.436 34.7564 103.182 33.8838 102.183 33.1063C101.184 32.313 99.5341 31.0278 98.5189 30.2504C96.6154 28.7748 96.1236 28.2036 95.4891 26.8391C95.1719 26.1569 95.1243 25.7919 95.1243 24.3005C95.1243 22.6663 95.156 22.4917 95.6002 21.6508C96.1395 20.6195 102.865 11.7978 103.865 10.7982C104.674 9.989 105.943 9.35435 107.1 9.16395C108.322 8.97355 108.354 8.97355 109.401 9.16395Z" fill="white"/>
<path d="M105.769 11.6392C104.468 12.02 103.707 12.6864 102.073 14.8284C101.216 15.939 99.7412 17.843 98.7894 19.0647C97.8377 20.2864 96.8859 21.6668 96.6639 22.1269C96.3149 22.8885 96.2832 23.1423 96.3466 24.4275C96.4259 26.0776 96.8225 27.0772 97.7742 27.9816C98.7736 28.9336 104.008 32.9478 104.722 33.2968C105.674 33.7728 107.561 33.8839 108.672 33.5031C110.226 32.9954 110.321 32.8843 115.635 25.9824C117.46 23.6183 117.856 22.9202 118.062 21.7144C118.475 19.4137 117.079 17.0655 113.922 14.7649C111.21 12.7816 109.798 11.8455 109.116 11.6233C108.18 11.306 106.8 11.306 105.769 11.6392ZM108.228 14.7332C109.211 15.2409 112.907 17.9699 113.764 18.8267C114.192 19.2551 114.557 19.8104 114.684 20.1912C114.969 21.1432 114.922 22.4442 114.573 23.1899C114.398 23.539 113.066 25.2843 111.59 27.0772C109.179 30.0125 108.83 30.3774 107.974 30.8058C107.197 31.1866 106.848 31.2659 105.912 31.2659C104.563 31.2659 104.389 31.1866 101.55 29.1557C98.0598 26.6647 97.4253 25.8714 97.4253 23.9515C97.4253 22.8091 97.8218 22.1428 100.566 18.7949C103.913 14.7014 104.278 14.4158 106.403 14.4C107.276 14.3841 107.688 14.4634 108.228 14.7332Z" fill="white"/>
<path d="M104.455 16.1238C103.667 16.355 103.206 16.7595 102.217 18.06C101.698 18.7342 100.805 19.8901 100.229 20.6319C99.653 21.3736 99.0768 22.2116 98.9424 22.491C98.7311 22.9533 98.7119 23.1074 98.7503 23.8877C98.7983 24.8895 99.0384 25.4963 99.6146 26.0454C100.22 26.6233 103.389 29.0604 103.821 29.2723C104.397 29.5613 105.54 29.6287 106.212 29.3975C107.153 29.0893 107.211 29.0219 110.428 24.8317C111.532 23.3964 111.772 22.9726 111.897 22.2405C112.147 20.8438 111.302 19.4182 109.391 18.0214C107.749 16.8173 106.894 16.249 106.481 16.1142C105.914 15.9215 105.079 15.9215 104.455 16.1238ZM105.943 18.0022C106.539 18.3104 108.776 19.9672 109.295 20.4874C109.554 20.7475 109.775 21.0846 109.852 21.3158C110.025 21.8937 109.996 22.6836 109.784 23.1363C109.679 23.3483 108.872 24.4078 107.979 25.4963C106.519 27.2784 106.308 27.4999 105.789 27.76C105.319 27.9912 105.108 28.0393 104.541 28.0393C103.725 28.0393 103.619 27.9912 101.9 26.7582C99.7874 25.2459 99.4033 24.7643 99.4033 23.5987C99.4033 22.9052 99.6434 22.5006 101.305 20.4681C103.331 17.9829 103.552 17.8095 104.839 17.7999C105.367 17.7902 105.617 17.8384 105.943 18.0022Z" fill="white"/>
</svg>
