<svg width="22" height="112" viewBox="0 0 22 112" fill="none" xmlns="http://www.w3.org/2000/svg">
<path d="M17.24 82.792C17.24 83.608 17.1013 84.344 16.824 85C16.5467 85.6507 16.152 86.1893 15.64 86.616C15.1227 87.0373 14.512 87.312 13.808 87.44L13.576 85.968C14.3013 85.7813 14.8693 85.3947 15.28 84.808C15.6853 84.216 15.888 83.52 15.888 82.72C15.888 82.2027 15.808 81.736 15.648 81.32C15.4827 80.8987 15.248 80.5653 14.944 80.32C14.64 80.0747 14.28 79.952 13.864 79.952C13.608 79.952 13.3893 79.9973 13.208 80.088C13.0213 80.1733 12.864 80.2933 12.736 80.448C12.6027 80.5973 12.4907 80.768 12.4 80.96C12.3093 81.152 12.2347 81.352 12.176 81.56L11.304 84.496C11.208 84.816 11.088 85.1253 10.944 85.424C10.7947 85.7227 10.6107 85.9893 10.392 86.224C10.168 86.4587 9.90133 86.6453 9.592 86.784C9.27733 86.9227 8.90667 86.992 8.48 86.992C7.79733 86.992 7.216 86.816 6.736 86.464C6.25067 86.1067 5.88 85.624 5.624 85.016C5.368 84.408 5.24267 83.7227 5.248 82.96C5.25333 82.1867 5.392 81.496 5.664 80.888C5.93067 80.2747 6.31467 79.768 6.816 79.368C7.31733 78.9627 7.91733 78.6907 8.616 78.552L8.88 80.064C8.41067 80.144 8.008 80.3227 7.672 80.6C7.33067 80.872 7.06933 81.2133 6.888 81.624C6.70133 82.0347 6.60533 82.4853 6.6 82.976C6.59467 83.4453 6.66933 83.8693 6.824 84.248C6.97867 84.6267 7.19467 84.928 7.472 85.152C7.744 85.376 8.05867 85.488 8.416 85.488C8.768 85.488 9.05333 85.3867 9.272 85.184C9.48533 84.9813 9.656 84.7333 9.784 84.44C9.90667 84.1413 10.008 83.8507 10.088 83.568L10.72 81.376C10.7893 81.1253 10.8853 80.8373 11.008 80.512C11.1307 80.1813 11.304 79.8613 11.528 79.552C11.7467 79.2427 12.04 78.9867 12.408 78.784C12.7707 78.5813 13.2293 78.48 13.784 78.48C14.3387 78.48 14.832 78.592 15.264 78.816C15.696 79.0347 16.0587 79.3413 16.352 79.736C16.64 80.1307 16.8587 80.5893 17.008 81.112C17.1627 81.6347 17.24 82.1947 17.24 82.792ZM17.24 73.1619C17.24 74.0365 17.0453 74.7805 16.656 75.3939C16.2613 76.0019 15.72 76.4659 15.032 76.7859C14.344 77.1059 13.56 77.2712 12.68 77.2819C11.7787 77.2712 10.9867 77.1032 10.304 76.7779C9.616 76.4472 9.08 75.9752 8.696 75.3619C8.312 74.7485 8.12 74.0099 8.12 73.1459C8.12 72.2339 8.344 71.4499 8.792 70.7939C9.24 70.1325 9.85333 69.6899 10.632 69.4659L11.056 70.8739C10.5547 71.0552 10.1653 71.3512 9.888 71.7619C9.61067 72.1672 9.472 72.6339 9.472 73.1619C9.472 73.7539 9.61067 74.2419 9.888 74.6259C10.16 75.0099 10.5387 75.2952 11.024 75.4819C11.504 75.6685 12.056 75.7645 12.68 75.7699C13.64 75.7592 14.416 75.5379 15.008 75.1059C15.5947 74.6685 15.888 74.0205 15.888 73.1619C15.888 72.5965 15.76 72.1272 15.504 71.7539C15.2427 71.3805 14.8667 71.0979 14.376 70.9059L14.752 69.4659C15.5573 69.7645 16.1733 70.2312 16.6 70.8659C17.0267 71.5005 17.24 72.2659 17.24 73.1619ZM17 67.8331H8.36V66.5611H10.448L10.176 66.7691C9.90933 66.6678 9.664 66.5371 9.44 66.3771C9.216 66.2118 9.032 66.0278 8.888 65.8251C8.70667 65.6011 8.568 65.3478 8.472 65.0651C8.376 64.7825 8.32 64.4945 8.304 64.2011C8.28267 63.9078 8.30133 63.6331 8.36 63.3771H9.696C9.616 63.6758 9.59467 64.0038 9.632 64.3611C9.66933 64.7185 9.8 65.0491 10.024 65.3531C10.2213 65.6305 10.4613 65.8465 10.744 66.0011C11.0267 66.1505 11.3333 66.2545 11.664 66.3131C11.9893 66.3718 12.3227 66.4011 12.664 66.4011H17V67.8331ZM17.24 58.3406C17.24 59.1993 17.0453 59.9406 16.656 60.5646C16.2667 61.1833 15.728 61.6606 15.04 61.9966C14.352 62.3326 13.5627 62.5006 12.672 62.5006C11.7653 62.5006 10.9707 62.33 10.288 61.9886C9.60533 61.6473 9.07467 61.1646 8.696 60.5406C8.312 59.9166 8.12 59.1833 8.12 58.3406C8.12 57.4766 8.31467 56.7326 8.704 56.1086C9.088 55.4846 9.624 55.0073 10.312 54.6766C10.9947 54.3406 11.7813 54.1726 12.672 54.1726C13.5733 54.1726 14.368 54.3406 15.056 54.6766C15.7387 55.0126 16.2747 55.4926 16.664 56.1166C17.048 56.7406 17.24 57.482 17.24 58.3406ZM15.888 58.3406C15.888 57.4446 15.5893 56.778 14.992 56.3406C14.3947 55.9033 13.6213 55.6846 12.672 55.6846C11.696 55.6846 10.92 55.906 10.344 56.3486C9.76267 56.7913 9.472 57.4553 9.472 58.3406C9.472 58.9433 9.608 59.4393 9.88 59.8286C10.152 60.218 10.528 60.5086 11.008 60.7006C11.488 60.8926 12.0427 60.9886 12.672 60.9886C13.6427 60.9886 14.4213 60.7646 15.008 60.3166C15.5947 59.8686 15.888 59.21 15.888 58.3406ZM17 52.2512H5.24L5.24 50.8272H17V52.2512ZM17 48.2669H5.24V46.8429H17V48.2669ZM17 41.2394H5.48V37.6874C5.48 37.57 5.48267 37.3647 5.488 37.0714C5.49333 36.778 5.51467 36.498 5.552 36.2314C5.66933 35.3407 5.99467 34.5967 6.528 33.9994C7.056 33.3967 7.728 32.9434 8.544 32.6394C9.36 32.3354 10.2587 32.1834 11.24 32.1834C12.2213 32.1834 13.12 32.3354 13.936 32.6394C14.752 32.9434 15.4267 33.3967 15.96 33.9994C16.488 34.5967 16.8107 35.3407 16.928 36.2314C16.96 36.498 16.9813 36.7807 16.992 37.0794C16.9973 37.3727 17 37.5754 17 37.6874V41.2394ZM15.64 39.7754V37.6874C15.64 37.4847 15.6347 37.258 15.624 37.0074C15.608 36.7567 15.584 36.538 15.552 36.3514C15.4347 35.722 15.1707 35.2127 14.76 34.8234C14.3493 34.434 13.8373 34.1487 13.224 33.9674C12.6107 33.786 11.9493 33.6954 11.24 33.6954C10.5147 33.6954 9.84533 33.7887 9.232 33.9754C8.61867 34.1567 8.10933 34.442 7.704 34.8314C7.29867 35.2207 7.04 35.7274 6.928 36.3514C6.89067 36.538 6.86667 36.7594 6.856 37.0154C6.84533 37.2714 6.84 37.4954 6.84 37.6874V39.7754H15.64ZM17.24 26.6687C17.24 27.5274 17.0453 28.2687 16.656 28.8927C16.2667 29.5114 15.728 29.9887 15.04 30.3247C14.352 30.6607 13.5627 30.8287 12.672 30.8287C11.7653 30.8287 10.9707 30.6581 10.288 30.3167C9.60533 29.9754 9.07467 29.4927 8.696 28.8687C8.312 28.2447 8.12 27.5114 8.12 26.6687C8.12 25.8047 8.31467 25.0607 8.704 24.4367C9.088 23.8127 9.624 23.3354 10.312 23.0047C10.9947 22.6687 11.7813 22.5007 12.672 22.5007C13.5733 22.5007 14.368 22.6687 15.056 23.0047C15.7387 23.3407 16.2747 23.8207 16.664 24.4447C17.048 25.0687 17.24 25.8101 17.24 26.6687ZM15.888 26.6687C15.888 25.7727 15.5893 25.1061 14.992 24.6687C14.3947 24.2314 13.6213 24.0127 12.672 24.0127C11.696 24.0127 10.92 24.2341 10.344 24.6767C9.76267 25.1194 9.472 25.7834 9.472 26.6687C9.472 27.2714 9.608 27.7674 9.88 28.1567C10.152 28.5461 10.528 28.8367 11.008 29.0287C11.488 29.2207 12.0427 29.3167 12.672 29.3167C13.6427 29.3167 14.4213 29.0927 15.008 28.6447C15.5947 28.1967 15.888 27.5381 15.888 26.6687ZM17 19.2119L8.352 21.8519L8.36 20.4359L14.68 18.5079L8.36 16.5639L8.36 15.3079L14.68 13.3719L8.36 11.4359V10.0279L17 12.6679V13.8519L10.432 15.9399L17 18.0279V19.2119ZM17 2.43112H12.672C12.2613 2.43112 11.8667 2.46846 11.488 2.54312C11.1093 2.61246 10.7707 2.73779 10.472 2.91912C10.168 3.09512 9.928 3.33512 9.752 3.63912C9.576 3.93779 9.488 4.31646 9.488 4.77512C9.488 5.13246 9.54933 5.45779 9.672 5.75112C9.78933 6.03912 9.97067 6.28712 10.216 6.49512C10.4613 6.70312 10.7707 6.86579 11.144 6.98312C11.512 7.09512 11.9467 7.15112 12.448 7.15112L12.16 8.08712C11.3227 8.08712 10.6053 7.93779 10.008 7.63912C9.40533 7.33512 8.944 6.91112 8.624 6.36712C8.29867 5.81779 8.136 5.17246 8.136 4.43112C8.136 3.87112 8.224 3.39379 8.4 2.99912C8.576 2.60446 8.81067 2.27646 9.104 2.01512C9.392 1.75379 9.71733 1.54846 10.08 1.39912C10.4373 1.24979 10.8027 1.14579 11.176 1.08712C11.544 1.02312 11.8933 0.991124 12.224 0.991124H17V2.43112ZM17 8.59112H8.36V7.31112H10.672V7.15112H17V8.59112Z" fill="white"/>
<line x1="10.5" y1="112" x2="10.5" y2="97" stroke="white"/>
</svg>
