<svg width="22" height="128" viewBox="0 0 22 128" fill="none" xmlns="http://www.w3.org/2000/svg">
<path d="M17 102.88H5.48V98.328C5.48 98.216 5.48533 98.0827 5.496 97.928C5.50133 97.7733 5.51733 97.624 5.544 97.48C5.64 96.856 5.85333 96.3333 6.184 95.912C6.51467 95.4853 6.93333 95.1653 7.44 94.952C7.94133 94.7387 8.49867 94.632 9.112 94.632C9.72 94.632 10.2773 94.7413 10.784 94.96C11.2853 95.1733 11.704 95.4933 12.04 95.92C12.3707 96.3413 12.584 96.8613 12.68 97.48C12.7013 97.624 12.7173 97.7733 12.728 97.928C12.7387 98.0827 12.744 98.216 12.744 98.328V101.456H17V102.88ZM11.392 101.456V98.376C11.392 98.2747 11.3867 98.16 11.376 98.032C11.3653 97.8987 11.3467 97.7733 11.32 97.656C11.2347 97.288 11.08 96.9893 10.856 96.76C10.6267 96.5253 10.36 96.3547 10.056 96.248C9.74667 96.1413 9.432 96.088 9.112 96.088C8.792 96.088 8.48 96.1413 8.176 96.248C7.86667 96.3547 7.59733 96.5253 7.368 96.76C7.13867 96.9893 6.984 97.288 6.904 97.656C6.872 97.7733 6.85333 97.8987 6.848 98.032C6.83733 98.16 6.832 98.2747 6.832 98.376V101.456H11.392ZM17 93.0362H8.36V91.7642H10.448L10.176 91.9722C9.90933 91.8709 9.664 91.7402 9.44 91.5802C9.216 91.4149 9.032 91.2309 8.888 91.0282C8.70667 90.8042 8.568 90.5509 8.472 90.2682C8.376 89.9856 8.32 89.6976 8.304 89.4042C8.28267 89.1109 8.30133 88.8362 8.36 88.5802H9.696C9.616 88.8789 9.59467 89.2069 9.632 89.5642C9.66933 89.9216 9.8 90.2522 10.024 90.5562C10.2213 90.8336 10.4613 91.0496 10.744 91.2042C11.0267 91.3536 11.3333 91.4576 11.664 91.5162C11.9893 91.5749 12.3227 91.6042 12.664 91.6042H17V93.0362ZM17 87.8675H16.744L9.656 82.6275V87.4355H8.36V80.3315H8.632L15.704 85.5635V80.6035H17V87.8675ZM17.24 75.4641C17.24 76.3121 17.0533 77.0535 16.68 77.6881C16.3013 78.3175 15.776 78.8081 15.104 79.1601C14.4267 79.5121 13.6373 79.6881 12.736 79.6881C11.792 79.6881 10.976 79.5148 10.288 79.1681C9.59467 78.8215 9.06133 78.3388 8.688 77.7201C8.30933 77.0961 8.12 76.3655 8.12 75.5281C8.12 74.6588 8.32 73.9201 8.72 73.3121C9.12 72.6988 9.69067 72.2401 10.432 71.9361C11.1733 71.6268 12.056 71.4935 13.08 71.5361V72.9761H12.568C11.5067 72.9921 10.7147 73.2081 10.192 73.6241C9.664 74.0401 9.4 74.6588 9.4 75.4801C9.4 76.3601 9.68267 77.0295 10.248 77.4881C10.8133 77.9468 11.624 78.1761 12.68 78.1761C13.6987 78.1761 14.488 77.9468 15.048 77.4881C15.608 77.0295 15.888 76.3761 15.888 75.5281C15.888 74.9575 15.7573 74.4615 15.496 74.0401C15.2347 73.6188 14.8587 73.2881 14.368 73.0481L14.84 71.6801C15.6027 72.0161 16.1947 72.5228 16.616 73.2001C17.032 73.8721 17.24 74.6268 17.24 75.4641ZM13.08 78.6561H11.936V72.2721H13.08V78.6561ZM17 68.2275L8.352 70.8675L8.36 69.4515L14.68 67.5235L8.36 65.5795V64.3235L14.68 62.3875L8.36 60.4515V59.0435L17 61.6835V62.8675L10.432 64.9555L17 67.0435V68.2275ZM6.832 57.4387H5.36V56.0147H6.832V57.4387ZM17 57.4387H8.36V56.0147H17V57.4387ZM7.04 49.1584V50.3184L4.4 49.2704V48.1104L7.04 49.1584ZM17 47.4624H12.672C12.2613 47.4624 11.8667 47.4997 11.488 47.5744C11.1093 47.6437 10.7707 47.769 10.472 47.9504C10.168 48.1264 9.928 48.3664 9.752 48.6704C9.576 48.969 9.488 49.3477 9.488 49.8064C9.488 50.1637 9.54933 50.489 9.672 50.7824C9.78933 51.0704 9.97067 51.3184 10.216 51.5264C10.4613 51.7344 10.7707 51.897 11.144 52.0144C11.512 52.1264 11.9467 52.1824 12.448 52.1824L12.16 53.1184C11.3227 53.1184 10.6053 52.969 10.008 52.6704C9.40533 52.3664 8.944 51.9424 8.624 51.3984C8.29867 50.849 8.136 50.2037 8.136 49.4624C8.136 48.9024 8.224 48.425 8.4 48.0304C8.576 47.6357 8.81067 47.3077 9.104 47.0464C9.392 46.785 9.71733 46.5797 10.08 46.4304C10.4373 46.281 10.8027 46.177 11.176 46.1184C11.544 46.0544 11.8933 46.0224 12.224 46.0224H17V47.4624ZM17 53.6224H8.36V52.3424H10.672V52.1824H17V53.6224ZM17 38.8994L8.352 41.5394L8.36 40.1234L14.68 38.1954L8.36 36.2514V34.9954L14.68 33.0594L8.36 31.1234V29.7154L17 32.3554V33.5394L10.432 35.6274L17 37.7154V38.8994ZM17.24 21.6755C17.24 22.4808 17.04 23.1715 16.64 23.7475C16.2347 24.3235 15.688 24.7688 15 25.0835C14.312 25.3928 13.536 25.5475 12.672 25.5475C11.808 25.5475 11.032 25.3928 10.344 25.0835C9.656 24.7688 9.11467 24.3235 8.72 23.7475C8.32 23.1715 8.12 22.4835 8.12 21.6835C8.12 20.8675 8.31733 20.1822 8.712 19.6275C9.10667 19.0728 9.648 18.6542 10.336 18.3715C11.024 18.0835 11.8027 17.9395 12.672 17.9395C13.5307 17.9395 14.3067 18.0835 15 18.3715C15.688 18.6542 16.2347 19.0728 16.64 19.6275C17.04 20.1822 17.24 20.8648 17.24 21.6755ZM15.936 21.4995C15.936 20.9182 15.7973 20.4408 15.52 20.0675C15.2373 19.6942 14.8507 19.4195 14.36 19.2435C13.864 19.0622 13.3013 18.9715 12.672 18.9715C12.032 18.9715 11.4693 19.0622 10.984 19.2435C10.4933 19.4195 10.112 19.6915 9.84 20.0595C9.56267 20.4275 9.424 20.8942 9.424 21.4595C9.424 22.0462 9.568 22.5315 9.856 22.9155C10.144 23.2942 10.5333 23.5768 11.024 23.7635C11.5147 23.9448 12.064 24.0355 12.672 24.0355C13.2853 24.0355 13.84 23.9422 14.336 23.7555C14.8267 23.5688 15.216 23.2888 15.504 22.9155C15.792 22.5368 15.936 22.0648 15.936 21.4995ZM17 18.9715H10.64V19.1315H5.48V17.6995H17V18.9715ZM7.04 11.1941V12.3541L4.4 11.3061V10.1461L7.04 11.1941ZM17.24 11.7781C17.24 12.6368 17.0453 13.3781 16.656 14.0021C16.2667 14.6208 15.728 15.0981 15.04 15.4341C14.352 15.7701 13.5627 15.9381 12.672 15.9381C11.7653 15.9381 10.9707 15.7675 10.288 15.4261C9.60533 15.0848 9.07467 14.6021 8.696 13.9781C8.312 13.3541 8.12 12.6208 8.12 11.7781C8.12 10.9141 8.31467 10.1701 8.704 9.54612C9.088 8.92212 9.624 8.44479 10.312 8.11412C10.9947 7.77812 11.7813 7.61012 12.672 7.61012C13.5733 7.61012 14.368 7.77812 15.056 8.11412C15.7387 8.45012 16.2747 8.93012 16.664 9.55412C17.048 10.1781 17.24 10.9195 17.24 11.7781ZM15.888 11.7781C15.888 10.8821 15.5893 10.2155 14.992 9.77812C14.3947 9.34079 13.6213 9.12212 12.672 9.12212C11.696 9.12212 10.92 9.34346 10.344 9.78612C9.76267 10.2288 9.472 10.8928 9.472 11.7781C9.472 12.3808 9.608 12.8768 9.88 13.2661C10.152 13.6555 10.528 13.9461 11.008 14.1381C11.488 14.3301 12.0427 14.4261 12.672 14.4261C13.6427 14.4261 14.4213 14.2021 15.008 13.7541C15.5947 13.3061 15.888 12.6475 15.888 11.7781ZM13.336 6.39275H11.76L8.904 1.40875H10.472L13.336 6.39275ZM17 4.60875H5.24V3.18475H17V4.60875Z" fill="white"/>
<line x1="10.5" y1="128" x2="10.5" y2="113" stroke="white"/>
</svg>
