<svg width="463" height="463" viewBox="0 0 463 463" fill="none" xmlns="http://www.w3.org/2000/svg">
<path d="M198.563 320.662L116.219 238.302L139.489 215.031L198.563 274.088L323.478 149.156L346.781 172.46L198.563 320.662Z" fill="#242424"/>
<path d="M231.5 0.9375C185.899 0.9375 141.322 14.4598 103.406 39.7943C65.4906 65.1288 35.9389 101.138 18.4881 143.268C1.0374 185.397 -3.52851 231.756 5.3678 276.481C14.2641 321.205 36.223 362.288 68.4678 394.532C100.713 426.777 141.795 448.736 186.52 457.632C231.244 466.529 277.603 461.963 319.733 444.512C361.862 427.061 397.871 397.509 423.206 359.594C448.54 321.678 462.063 277.101 462.063 231.5C462.063 170.351 437.771 111.707 394.532 68.4677C351.294 25.2288 292.649 0.9375 231.5 0.9375ZM231.5 429.125C192.414 429.125 154.205 417.534 121.706 395.819C89.2063 374.104 63.8762 343.239 48.9184 307.128C33.9606 271.017 30.047 231.281 37.6724 192.945C45.2978 154.61 64.1198 119.396 91.7581 91.758C119.396 64.1197 154.61 45.2977 192.945 37.6723C231.281 30.0469 271.017 33.9605 307.128 48.9183C343.239 63.8761 374.104 89.2062 395.819 121.705C417.535 154.205 429.125 192.413 429.125 231.5C429.125 283.913 408.304 334.18 371.242 371.242C334.18 408.304 283.914 429.125 231.5 429.125Z" fill="#242424"/>
</svg>
