<svg width="60" height="60" viewBox="0 0 60 60" fill="none" xmlns="http://www.w3.org/2000/svg">
<g clip-path="url(#clip0_455_157)">
<path d="M42.668 1.125C40.5234 1.69922 38.8594 3.55078 38.5195 5.74219L38.3906 6.55078L35.5078 6.58594L32.625 6.62109L31.7344 7.05469C30.668 7.58203 30.0117 8.26172 29.4961 9.35156L29.1211 10.1367L29.0859 13.2539L29.0508 16.3711L28.125 15.7617C26.1797 14.4844 24.2344 13.9922 21.5039 14.0977C18.4805 14.2148 16.2305 15.1523 14.2617 17.1211C13.7695 17.6133 13.3008 17.9648 13.0312 18.0586C11.0977 18.668 9.33984 20.4609 8.71875 22.4648C8.46094 23.3086 8.39062 24.7969 8.54297 25.8984C8.89453 28.3008 9.90234 30.3516 11.6133 32.168C12.1758 32.7656 12.293 32.9648 12.3633 33.457C12.6562 35.5078 14.2969 37.875 16.2305 39.0469L16.8633 39.4336L16.875 40.4531C16.875 41.0273 16.8398 41.4844 16.8047 41.4844C16.5586 41.4844 9.65625 43.1602 9.08203 43.3594C5.26172 44.6836 2.37891 47.8477 1.28906 51.9141C1.05469 52.793 1.01953 53.2734 0.972656 55.9805L0.914062 59.0625H20.625H40.3359L40.2891 55.9805C40.2305 52.6875 40.1367 52.0781 39.457 50.3906L39.1641 49.6875L40.9453 49.6992H42.7148L44.7656 52.1602C47.168 55.0547 47.4258 55.2539 48.6914 55.2539C49.875 55.2422 50.6953 54.75 51.2461 53.7305C51.4688 53.3203 51.5039 53.0273 51.5391 51.4805L51.5859 49.7109L53.5312 49.6641C55.4414 49.6289 55.5117 49.6172 56.2734 49.2539C57.3633 48.7383 58.043 48.082 58.5703 47.0156L59.0039 46.125V41.25V36.375L58.5703 35.4844C58.043 34.418 57.3633 33.7617 56.2734 33.2461L55.4883 32.8711H45H34.5117L33.7266 33.2461C32.6367 33.7617 31.957 34.418 31.4297 35.4844L30.9961 36.375L30.9375 39.668L30.8789 42.9609L27.6328 42.1992L24.375 41.4492V40.4414L24.3867 39.4336L25.0195 39.0469C26.9531 37.875 28.5938 35.5078 28.8867 33.457C28.957 32.9648 29.0742 32.7656 29.6367 32.168C31.2539 30.457 32.2383 28.5 32.6133 26.2852L32.7656 25.3711L35.6016 25.3359L38.4375 25.3125V26.9766C38.4375 28.4883 38.4727 28.7109 38.7188 29.2383C39.4219 30.7734 41.2734 31.3828 42.6914 30.5508C43.0195 30.3516 43.875 29.4258 45.2344 27.7969L47.2852 25.3359L51.3984 25.2891L55.5 25.2539L56.3906 24.8203C57.457 24.293 58.1133 23.6133 58.6289 22.5234L59.0039 21.7383V15.9375V10.1367L58.6289 9.35156C58.1133 8.26172 57.457 7.58203 56.3906 7.05469L55.5 6.62109L52.6172 6.58594L49.7344 6.55078L49.6055 5.74219C49.0898 2.47266 45.7969 0.28125 42.668 1.125ZM45.832 3.29297C46.6172 3.71484 46.9805 4.08984 47.4375 4.96875C47.6953 5.47266 47.7422 5.71875 47.7422 6.5625C47.7539 7.47656 47.7188 7.61719 47.3555 8.29688C46.9102 9.11719 46.5352 9.46875 45.6562 9.9375C45.1523 10.1953 44.9062 10.2422 44.0625 10.2422C43.2188 10.2422 42.9727 10.1953 42.4688 9.9375C41.5898 9.46875 41.2148 9.11719 40.7695 8.29688C40.4062 7.61719 40.3711 7.47656 40.3828 6.5625C40.3828 5.39062 40.6641 4.6875 41.4258 3.92578C42.5977 2.75391 44.3438 2.50781 45.832 3.29297ZM39.0586 9.09375C39.2344 9.45703 39.6562 10.0312 39.9844 10.3828C40.5 10.9336 40.5469 11.0156 40.3594 11.0859C39.7266 11.3203 38.4375 12.1758 37.7109 12.8672C35.625 14.8359 34.6875 17.1094 34.6875 20.2266V21.5625H44.0625H53.4375V20.2383C53.4258 17.2617 52.6523 15.1992 50.8242 13.2773C50.0039 12.4102 48.7969 11.5195 47.9883 11.1797L47.5547 11.0039L48.1523 10.3711C48.4688 10.0312 48.8906 9.45703 49.0664 9.09375L49.3828 8.4375H52.0664C53.8359 8.4375 54.9258 8.48438 55.2422 8.57812C55.8867 8.76562 56.8594 9.73828 57.0469 10.3828C57.2461 11.0625 57.2461 20.8125 57.0469 21.4922C56.8594 22.1367 55.8867 23.1094 55.2422 23.2969C54.9023 23.3906 53.5195 23.4375 50.5898 23.4375H46.4297L44.1328 26.1914C42.5859 28.043 41.7422 28.9688 41.543 29.0156C41.1445 29.1211 40.6055 28.875 40.4414 28.5234C40.3594 28.3359 40.3125 27.3633 40.3125 25.8398V23.4375L36.5391 23.4141L32.7656 23.3789L32.625 22.5586C32.4023 21.3164 31.7227 19.582 31.1016 18.7031C30.8789 18.3867 30.8555 11.1211 31.0781 10.3828C31.2539 9.78516 32.2383 8.77734 32.8125 8.58984C33.0586 8.50781 34.3359 8.46094 35.9766 8.44922L38.7422 8.4375L39.0586 9.09375ZM45.6445 12.3633C48.7148 12.9961 51.1992 15.7734 51.5156 18.9258L51.5977 19.6875H44.0742H36.5625V19.3008C36.5742 18.5391 36.9258 17.2617 37.3828 16.3359C38.9297 13.2773 42.2812 11.6602 45.6445 12.3633ZM25.0195 16.3359C26.3555 16.7695 27.3398 17.3789 28.418 18.457C29.4844 19.5234 30.1055 20.5078 30.5508 21.8555C30.8203 22.6641 30.8555 22.9922 30.8672 24.3164C30.8789 26.3555 30.4805 27.8203 29.5078 29.3086C29.0391 30.0352 29.0273 30.0469 28.9219 29.7656C28.3125 28.1602 27.6445 27.375 26.3906 26.7539L25.5 26.3086L22.2188 26.25L18.9258 26.1914L17.7539 25.418C16.5586 24.6211 15.9727 24.375 15.2227 24.375C14.168 24.375 13.0078 25.1133 12.5156 26.1094C12.2812 26.5781 12.2344 26.8945 12.1875 28.3008L12.1289 29.9414L11.6836 29.2148C10.6992 27.5977 10.125 25.1602 10.3945 23.6367C10.7109 21.75 12.1055 20.2266 13.9688 19.7461C14.4492 19.6172 14.6719 19.4531 15.2578 18.8086C16.1367 17.8477 17.2148 17.0742 18.293 16.6172C19.5938 16.0664 20.4609 15.9375 22.3828 15.9844C23.8125 16.0195 24.2227 16.0781 25.0195 16.3359ZM17.0508 27.1875L18.457 28.125H21.6094C23.7422 28.125 24.9141 28.1719 25.2422 28.2656C25.9336 28.4766 26.8594 29.4258 27.0586 30.1523C27.2812 30.9375 27.1641 33.0117 26.8477 33.9023C26.1211 35.9766 24.6211 37.4414 22.5 38.1562C21.6094 38.4609 19.6406 38.4609 18.75 38.1562C16.957 37.5586 15.5273 36.3281 14.7656 34.7461C14.1445 33.4688 14.0625 32.8477 14.0625 29.7305V27.0469L14.4609 26.6484C15.0938 26.0156 15.3867 26.0859 17.0508 27.1875ZM55.2422 34.8281C55.8867 35.0156 56.8594 35.9883 57.0469 36.6328C57.2461 37.3125 57.2461 45.1875 57.0469 45.8672C56.8594 46.5117 55.8867 47.4844 55.2422 47.6719C54.9258 47.7656 53.8711 47.8125 52.2188 47.8125H49.6875V50.2148C49.6875 51.7383 49.6406 52.7109 49.5586 52.8984C49.3828 53.2852 48.832 53.5078 48.4219 53.3672C48.2227 53.2969 47.2734 52.2656 45.832 50.5312L43.5703 47.8125H40.8398H38.1211L37.5117 47.0742C36.3984 45.7617 35.1562 44.7656 33.668 44.0156L32.8125 43.5938V40.3594C32.8125 38.1562 32.8594 36.9609 32.9531 36.6328C33.1289 36.0352 34.1133 35.0273 34.6875 34.8398C35.2969 34.6523 54.5859 34.6406 55.2422 34.8281ZM20.625 40.2539C21.1758 40.2539 21.8203 40.2188 22.0664 40.1719L22.5 40.0898V40.9805V41.8711L21.5977 43.0781C21.0938 43.7461 20.6602 44.2969 20.625 44.2969C20.5898 44.2969 20.1562 43.7461 19.6523 43.0781L18.75 41.8711V40.9805V40.0898L19.1953 40.1719C19.4297 40.2188 20.0742 40.2539 20.625 40.2539ZM18.4453 44.5898L19.4531 45.9375L18.3867 47.3555C17.5781 48.4336 17.2852 48.7383 17.2148 48.6094C17.1562 48.5156 16.7227 47.3789 16.2539 46.0781L15.3867 43.7227L16.3359 43.4883C16.8516 43.3594 17.3203 43.2539 17.3555 43.2539C17.4023 43.2422 17.8828 43.8516 18.4453 44.5898ZM25.043 43.5352L25.8867 43.7344L25.6758 44.2734C25.5586 44.5781 25.1602 45.668 24.7852 46.6992C24.4102 47.7305 24.0586 48.6211 24.0117 48.668C23.9648 48.7266 23.4492 48.1406 22.8633 47.3555L21.7969 45.9375L22.8047 44.5898C23.5078 43.6523 23.8828 43.2539 24.0117 43.2891C24.1172 43.3125 24.5742 43.4297 25.043 43.5352ZM15.9141 50.6016C17.2148 54.1406 18.2812 57.0703 18.2812 57.1055C18.2812 57.1523 16.4883 57.1875 14.2969 57.1875H10.3125V54.375V51.5625H9.375H8.4375V54.375V57.1875H5.61328H2.77734L2.84766 55.1602C2.90625 52.8398 3.11719 51.8672 3.85547 50.3438C4.66406 48.6914 5.83594 47.3438 7.42969 46.2656C8.46094 45.5508 9.45703 45.1523 11.2266 44.7188C13.1602 44.2383 13.2656 44.2148 13.4297 44.1914C13.4883 44.1914 14.6133 47.0742 15.9141 50.6016ZM29.7539 44.6367C30.7734 44.8945 31.9453 45.2578 32.3789 45.4453C35.1445 46.6992 37.3125 49.2656 38.0977 52.2188C38.2852 52.9219 38.3555 53.625 38.4023 55.1602L38.4727 57.1875H35.6367H32.8125V54.375V51.5625H31.875H30.9375V54.375V57.1875H26.9531C24.7617 57.1875 22.9688 57.1523 22.9688 57.0938C22.9688 56.8594 27.7148 44.1797 27.7969 44.1797C27.8555 44.1797 28.7344 44.3906 29.7539 44.6367ZM21.9492 49.2656L23.2031 50.9414L22.0664 54.0703C20.9766 57.0117 20.9062 57.1875 20.625 57.1875C20.3672 57.1875 20.2969 57.0938 20.0508 56.3906C19.8984 55.957 19.7461 55.5352 19.7109 55.4648C19.6758 55.3477 19.8984 55.3125 20.6133 55.3125H21.5625V54.375V53.4375H20.625H19.6992L19.6641 54.3398L19.6289 55.2539L18.832 53.0977L18.0469 50.9414L19.3008 49.2656C19.9922 48.3398 20.5898 47.5781 20.625 47.5781C20.6602 47.5781 21.2578 48.3398 21.9492 49.2656Z" fill="white"/>
<path d="M34.6875 37.5V38.4375H45H55.3125V37.5V36.5625H45H34.6875V37.5Z" fill="white"/>
<path d="M34.6875 41.25V42.1875H45H55.3125V41.25V40.3125H45H34.6875V41.25Z" fill="white"/>
<path d="M38.4375 45V45.9375H45H51.5625V45V44.0625H45H38.4375V45Z" fill="white"/>
<path d="M53.4375 45V45.9375H54.375H55.3125V45V44.0625H54.375H53.4375V45Z" fill="white"/>
<path d="M19.6875 50.625V51.5625H20.625H21.5625V50.625V49.6875H20.625H19.6875V50.625Z" fill="white"/>
</g>
<defs>
<clipPath id="clip0_455_157">
<rect width="60" height="60" fill="white"/>
</clipPath>
</defs>
</svg>
