<svg width="50" height="50" viewBox="0 0 50 50" fill="none" xmlns="http://www.w3.org/2000/svg">
<path d="M23.8374 3.66211C23.0757 3.87696 22.4116 4.26758 21.8355 4.84375C21.4448 5.24414 19.1206 9.03321 11.0152 22.4707C5.34133 31.8945 0.595235 39.8145 0.458516 40.0879C-0.684062 42.4023 0.44875 45.2148 2.89992 46.2109L3.46633 46.4355H24.9995H46.5327L47.0991 46.2109C49.5796 45.2051 50.6831 42.3828 49.5112 40.0391C49.1011 39.2188 28.7495 5.49805 28.4273 5.10743C28.0171 4.60938 27.2163 4.04297 26.5816 3.8086C25.8491 3.52539 24.5601 3.45704 23.8374 3.66211ZM25.4195 6.875C25.5952 6.94336 25.8198 7.10938 25.937 7.23633C26.2593 7.59766 46.5913 41.3867 46.6792 41.6992C46.8452 42.2754 46.4839 42.9199 45.8687 43.1543C45.478 43.3008 4.52102 43.3008 4.13039 43.1543C3.51516 42.9199 3.15383 42.2754 3.31984 41.6992C3.40773 41.3867 23.7398 7.59766 24.062 7.23633C24.2671 7.00196 24.7456 6.74805 24.98 6.73829C25.0484 6.73829 25.2437 6.79688 25.4195 6.875Z" fill="white"/>
<path d="M24.1211 17.0506C23.6035 17.2166 23.3301 17.4217 23.0566 17.8807C22.8711 18.1834 22.8516 18.369 22.8516 19.7264C22.8516 20.5565 22.9199 22.7733 22.998 24.658C23.0859 26.533 23.1836 28.8768 23.2227 29.8533C23.3008 31.7967 23.3203 31.8651 23.9746 32.2069C24.4336 32.451 25.5371 32.4217 26.0449 32.1483C26.6797 31.8162 26.7285 31.66 26.8066 29.3944C26.8359 28.2908 26.9336 26.0545 27.0117 24.4139C27.1777 20.7811 27.1875 18.3299 27.041 18.0369C26.5527 17.0897 25.3125 16.6697 24.1211 17.0506Z" fill="white"/>
<path d="M24.4814 34.5802C23.0654 34.922 22.3427 36.5334 23.0068 37.8713C23.5439 38.965 24.8134 39.4338 25.8779 38.9552C26.8154 38.5353 27.2841 37.8127 27.2841 36.8166C27.2841 36.1134 27.0693 35.5959 26.5908 35.1369C26.083 34.6486 25.1748 34.4142 24.4814 34.5802Z" fill="white"/>
</svg>
