<svg width="60" height="60" viewBox="0 0 60 60" fill="none" xmlns="http://www.w3.org/2000/svg">
<g clip-path="url(#clip0_455_145)">
<path d="M10.3125 0.105465C9.33984 0.410152 8.54297 1.19531 8.27344 2.12109C8.15625 2.49609 8.08594 3.1875 8.08594 3.8789V5.02734L5.54297 5.0625C3.15234 5.09765 2.95312 5.12109 2.44922 5.36718C1.57031 5.80078 0.984375 6.38671 0.5625 7.24218L0.175781 8.02734V28.0078V47.9883L0.480469 48.6445C0.878906 49.4883 1.60547 50.2148 2.44922 50.6133L3.10547 50.918L18.9258 50.9531L34.7461 50.9766L35.0625 51.832C36.0938 54.5859 38.5898 57.2695 41.4258 58.6758C43.1836 59.5547 44.9062 59.9297 47.1094 59.9297C49.3594 59.9297 51.0352 59.5547 52.9102 58.6172C54.7266 57.7148 56.7656 55.9453 57.8555 54.3164C59.4141 52.0078 60 49.9687 60 46.9453C60 44.8125 59.7891 43.6406 59.0742 41.9414C58.2539 39.9727 56.5898 37.8398 54.8906 36.5977L54.1406 36.0469V22.3828C54.1406 7.24218 54.1758 7.89843 53.3789 6.72656C52.9453 6.09375 52.6172 5.8125 51.7969 5.3789C51.293 5.10937 51.1406 5.09765 48.7383 5.0625L46.207 5.02734L46.1367 3.63281C46.0898 2.39062 46.043 2.16796 45.7383 1.61718C45.375 0.937496 44.6367 0.304684 43.9688 0.117184C43.3125 -0.0585976 41.7188 -0.0234413 41.0977 0.187496C40.5 0.386715 39.7383 1.05468 39.4102 1.66406C39.2578 1.95703 39.1992 2.40234 39.1641 3.53906L39.1172 5.03906H34.6289H30.1406L30.0938 3.59765C30.0469 1.93359 29.8828 1.5 29.0039 0.726559C28.3242 0.128902 27.5977 -0.0468788 26.2383 0.0234337C25.0664 0.0820274 24.4805 0.351559 23.8594 1.07812C23.2852 1.73437 23.0859 2.48437 23.0859 3.89062V5.03906H19.1133H15.1406L15.0938 3.59765C15.0586 2.41406 15.0117 2.08593 14.8008 1.6875C14.4375 1.00781 13.582 0.292965 12.9492 0.128902C12.375 -0.0117226 10.7695 -0.0234413 10.3125 0.105465ZM12.7852 2.33203L13.125 2.67187V5.91796C13.125 10.043 13.1602 9.96093 11.5547 9.96093C10.793 9.96093 10.6758 9.92578 10.418 9.65625L10.1367 9.35156V5.95312V2.55468L10.4648 2.27343C10.7461 2.03906 10.9219 1.99218 11.6133 1.99218C12.375 1.99218 12.4688 2.01562 12.7852 2.33203ZM27.7852 2.33203L28.125 2.67187V5.91796C28.125 10.043 28.1602 9.96093 26.5547 9.96093C25.793 9.96093 25.6758 9.92578 25.418 9.65625L25.1367 9.35156V5.95312V2.55468L25.4648 2.27343C25.7461 2.03906 25.9219 1.99218 26.6133 1.99218C27.375 1.99218 27.4688 2.01562 27.7852 2.33203ZM43.8398 2.33203C44.0508 2.58984 44.0625 2.84765 44.0625 6.01171C44.0625 9.35156 44.0625 9.42187 43.8047 9.6914C43.582 9.92578 43.4414 9.96093 42.6328 9.96093C41.8125 9.96093 41.6719 9.92578 41.4258 9.66796L41.1328 9.38671V6.01171C41.1445 3.53906 41.1797 2.58984 41.2852 2.44921C41.5664 2.07421 41.8945 1.99218 42.7617 2.02734C43.5 2.05078 43.6523 2.09765 43.8398 2.33203ZM8.10938 8.40234C8.15625 9.65625 8.19141 9.84375 8.49609 10.4062C9.12891 11.5664 9.90234 11.9531 11.6367 11.9531C12.7031 11.9531 12.9141 11.918 13.4531 11.6484C14.6719 11.0391 15.1172 10.1367 15.1172 8.23828V7.03125H19.0898H23.0625L23.1094 8.40234C23.1562 9.65625 23.1914 9.84375 23.4961 10.4062C24.1289 11.5664 24.9023 11.9531 26.6367 11.9531C27.7031 11.9531 27.9141 11.918 28.4531 11.6484C29.6719 11.0391 30.1172 10.1367 30.1172 8.23828V7.03125H34.6289H39.1406V8.34375C39.1406 9.42187 39.1875 9.76171 39.3867 10.1953C39.7031 10.8984 40.1367 11.3437 40.8398 11.6719C41.3438 11.9062 41.6016 11.9531 42.6562 11.9531C44.0859 11.9531 44.5664 11.7773 45.2578 11.0625C45.9023 10.3945 46.0664 9.86718 46.1367 8.35546L46.207 7.03125H48.4219C50.8711 7.03125 51.0234 7.0664 51.6562 7.78125C51.8906 8.05078 52.043 8.3789 52.0898 8.69531C52.125 8.97656 52.1484 10.7227 52.125 12.5977L52.0898 15.9961L27.1055 16.0312L2.10938 16.0547V12.3281C2.10938 8.64843 2.10938 8.58984 2.37891 8.07421C2.55469 7.75781 2.82422 7.46484 3.11719 7.30078C3.55078 7.05468 3.71484 7.03125 5.8125 7.03125H8.0625L8.10938 8.40234ZM52.1484 26.4844C52.1484 31.125 52.1133 34.9219 52.0664 34.9219C52.0078 34.9219 51.5508 34.7812 51.0352 34.6172C46.4531 33.1523 41.3906 34.4062 37.957 37.8398C36.7148 39.082 35.6602 40.6758 35.0508 42.2461C34.3477 44.0391 34.1602 45.1055 34.1719 47.2031L34.1836 48.9844H18.9258H3.66797L3.16406 48.7148C2.8125 48.5273 2.56641 48.2812 2.37891 47.9297L2.10938 47.4258V32.7305V18.0469H27.1289H52.1484V26.4844ZM49.7461 36.3281C51.7266 36.832 53.2383 37.6758 54.7617 39.1289C56.2148 40.5234 57.2344 42.2578 57.7969 44.3086C58.1719 45.6797 58.1719 48.3516 57.7969 49.7227C57.4805 50.8828 56.7539 52.4414 56.0859 53.3555C55.4883 54.1992 54.0938 55.5703 53.2852 56.1211C52.3945 56.7305 50.8711 57.3984 49.7344 57.6797C48.3398 58.0195 46.0664 58.043 44.7188 57.7383C40.5234 56.7539 37.3242 53.5195 36.3633 49.3008C36.0586 47.9414 36.1055 45.6914 36.4805 44.2617C37.1367 41.7773 38.4961 39.7617 40.5586 38.2031C42.0234 37.1016 43.7109 36.3984 45.6562 36.0937C46.6523 35.9414 48.6914 36.0586 49.7461 36.3281Z" fill="white"/>
<path d="M9.30549 21.1993C8.75471 21.4571 8.36799 21.8907 8.19221 22.4884C8.11018 22.7579 8.08674 24.1056 8.11018 26.2618L8.14533 29.6134L8.46174 30.0821C9.02424 30.9376 9.2469 30.9962 12.7391 31.0314C16.325 31.0782 16.9227 30.9962 17.5086 30.4103C17.743 30.1759 17.9539 29.8126 18.036 29.4962C18.1883 28.8517 18.2117 23.2501 18.0477 22.5704C17.9071 21.9376 17.6024 21.5509 16.993 21.2345C16.4891 20.9884 16.3719 20.9767 13.1258 20.9767C10.1258 20.9767 9.73908 21.0001 9.30549 21.1993ZM16.1492 25.9806L16.1727 28.9454H13.1258H10.0789V26.0392C10.0789 24.4337 10.1141 23.086 10.161 23.0392C10.2078 23.004 11.5555 22.9806 13.1727 22.9923L16.1141 23.0274L16.1492 25.9806Z" fill="white"/>
<path d="M23.543 21.0938C23.0391 21.2461 22.6758 21.5391 22.4063 22.0195C22.1602 22.4531 22.1484 22.582 22.1484 26.0391C22.1484 29.5664 22.1484 29.625 22.418 30.0117C22.793 30.5742 23.3555 30.9141 24.0586 30.9961C24.3984 31.043 26.0156 31.0547 27.6563 31.0312C30.9961 30.9961 31.1016 30.9727 31.7227 30.1523L32.0508 29.7305L32.0859 26.2617C32.1094 24.0938 32.0742 22.6406 32.0039 22.3828C31.8516 21.8789 31.2539 21.293 30.7148 21.1055C30.2578 20.9531 24.0352 20.9414 23.543 21.0938ZM30.1172 25.957V28.9453H27.1289H24.1406V25.957V22.9688H27.1289H30.1172V25.957Z" fill="white"/>
<path d="M37.3242 21.1992C36.7617 21.457 36.5156 21.7148 36.2695 22.3008C36.1289 22.6523 36.0938 23.3203 36.0938 26.039C36.0938 29.8594 36.1406 30.0703 37.043 30.668L37.5352 30.9961L40.6758 31.0312C44.3555 31.0781 44.8828 31.0078 45.5039 30.3867C46.125 29.7656 46.1953 29.2383 46.1484 25.5586L46.1133 22.418L45.7852 21.9258C45.1875 21.0234 44.9766 20.9765 41.1328 20.9765C38.1445 20.9765 37.7461 21 37.3242 21.1992ZM44.0625 25.957V28.9453H41.0742H38.0859V25.957V22.9687H41.0742H44.0625V25.957Z" fill="white"/>
<path d="M9.1178 33.2811C8.88343 33.41 8.56702 33.703 8.41468 33.9491C8.14515 34.3827 8.14515 34.4647 8.10999 37.8163C8.06312 41.7069 8.10999 41.953 8.97718 42.6092L9.41077 42.9491L12.8795 42.9842C16.7116 43.0194 17.0514 42.9725 17.6256 42.2928C18.1061 41.7303 18.1647 41.2499 18.1647 38.0272C18.1647 34.746 18.0944 34.242 17.6022 33.7147C16.9811 33.0467 16.9459 33.0467 13.1022 33.0467C9.82093 33.0585 9.51624 33.0702 9.1178 33.2811ZM16.1491 37.992L16.1139 40.9569L13.1022 40.992L10.0787 41.0155V38.0272V35.0389H13.1256H16.1725L16.1491 37.992Z" fill="white"/>
<path d="M23.0877 33.3047C22.8768 33.457 22.5838 33.7266 22.4549 33.9023C22.2205 34.2188 22.2088 34.3945 22.1737 37.8867C22.1502 41.4961 22.1502 41.5547 22.408 42C22.5721 42.293 22.8768 42.5625 23.1932 42.7383C23.6971 43.0078 23.7791 43.0078 27.0955 43.0078C30.7752 43.0078 30.951 42.9844 31.5487 42.3516C31.7244 42.1641 31.9237 41.8594 31.9823 41.6836C32.0643 41.4727 32.1112 40.0664 32.1112 37.957C32.1112 34.8047 32.0994 34.5234 31.8768 34.1016C31.7479 33.8555 31.4784 33.5273 31.2674 33.375C30.8807 33.1055 30.8455 33.1055 27.1893 33.0703C23.4979 33.0352 23.4862 33.0352 23.0877 33.3047ZM30.119 38.0273V41.0156H27.1307H24.1424V38.0273V35.0391H27.1307H30.119V38.0273Z" fill="white"/>
<path d="M4.59529 35.1213C4.1617 35.2971 3.92732 36.8322 4.24373 37.4182C4.57185 38.0392 5.32185 38.1682 5.80232 37.676C6.06013 37.4299 6.09529 37.2892 6.09529 36.5041C6.09529 35.7189 6.06013 35.5783 5.80232 35.3322C5.53279 35.051 4.99373 34.9572 4.59529 35.1213Z" fill="white"/>
<path d="M4.73438 40.0781C4.14844 40.3125 4.10156 40.5469 4.10156 43.0313C4.10156 45.4805 4.14844 45.7852 4.66406 46.3359C5.21484 46.9102 5.55469 46.9922 7.61719 46.9922C9.46875 46.9922 9.50391 46.9805 9.78516 46.6992C9.98438 46.5117 10.0781 46.2891 10.0781 45.9961C10.0781 45.7031 9.98438 45.4805 9.78516 45.293C9.51562 45.0117 9.45703 45 7.79297 45H6.09375V42.8438C6.09375 40.7578 6.08203 40.6641 5.83594 40.3828C5.53125 40.043 5.09766 39.9258 4.73438 40.0781Z" fill="white"/>
<path d="M12.4688 45.2812C12.2227 45.4922 12.1406 45.6562 12.1406 45.9961C12.1406 46.6758 12.5742 46.9922 13.5352 46.9922C14.4141 46.9922 14.8008 46.8398 14.9883 46.4414C15.1992 45.9844 15.1406 45.7031 14.7773 45.3398C14.4609 45.0234 14.3672 45 13.6055 45C12.9141 45 12.7383 45.0469 12.4688 45.2812Z" fill="white"/>
<path d="M51.7031 42.1643C51.4922 42.2697 49.8984 43.9455 48.1406 45.8791C46.3945 47.8127 44.9297 49.4065 44.8828 49.4299C44.8359 49.4416 44.3203 48.926 43.7227 48.2815C43.125 47.6369 42.5156 47.0744 42.3633 47.0393C41.7539 46.8869 41.1328 47.3791 41.1328 48.0119C41.1328 48.3518 41.3555 48.6447 42.7148 50.1447C44.3555 51.9611 44.6953 52.1955 45.2227 51.9143C45.4336 51.8088 51.8555 44.8361 52.7695 43.7346C53.1562 43.2541 53.1797 42.7736 52.8281 42.3752C52.4648 41.9768 52.1484 41.9182 51.7031 42.1643Z" fill="white"/>
</g>
<defs>
<clipPath id="clip0_455_145">
<rect width="60" height="60" fill="white"/>
</clipPath>
</defs>
</svg>
