<svg width="50" height="50" viewBox="0 0 50 50" fill="none" xmlns="http://www.w3.org/2000/svg">
<path d="M23.0466 0.107418C19.6482 0.488277 16.2497 1.97265 13.5935 4.22851C8.21263 8.78906 6.09349 16.3281 8.31028 23.0664C8.96458 25.0781 9.55052 26.0547 17.3728 38.1836C21.5134 44.5996 24.9509 49.8535 24.9997 49.8535C25.0486 49.8535 28.4861 44.5996 32.6267 38.1836C40.4685 26.0156 41.0349 25.0684 41.699 23.0469C43.2908 18.1543 42.6462 12.7539 39.9411 8.34961C37.5388 4.42382 33.3591 1.43554 28.906 0.449215C26.9333 0.0195274 24.8923 -0.0976601 23.0466 0.107418ZM27.8415 3.21289C30.3415 3.7207 32.7829 4.92187 34.6091 6.5625C37.1189 8.78906 38.6618 11.4551 39.3747 14.7852C39.6775 16.2012 39.6775 18.9551 39.3747 20.3613C39.0622 21.8066 38.7009 22.8711 38.0857 24.0723C37.6169 25.0098 25.1267 44.5312 24.9997 44.5312C24.9704 44.5312 22.1189 40.1367 18.6521 34.7656C14.8044 28.7988 12.1579 24.5898 11.8454 23.9648C11.2693 22.7734 10.9275 21.748 10.6247 20.3613C10.322 18.9355 10.322 16.2012 10.6345 14.7461C11.4158 11.1035 13.3591 8.01757 16.2595 5.84961C18.3689 4.26757 20.5173 3.42773 23.5837 2.98828C24.2673 2.89062 26.9431 3.02734 27.8415 3.21289Z" fill="white"/>
<path d="M23.3965 8.93572C19.9688 9.64861 17.3906 12.051 16.4922 15.381C16.1797 16.5041 16.1797 18.6525 16.4922 19.7756C17.957 25.1564 23.8848 27.881 28.8555 25.4396C31.707 24.0431 33.5723 21.2209 33.7578 18.0178C33.9922 13.9162 31.1992 10.1174 27.1953 9.07244C26.1797 8.80877 24.334 8.74041 23.3965 8.93572ZM26.4043 11.9142C27.5078 12.1974 28.2598 12.6271 29.1094 13.4767C31.4336 15.7814 31.4336 19.3654 29.1094 21.6799C26.7656 24.0138 23.2305 24.0138 20.8867 21.6799C19.0312 19.8342 18.6211 17.1388 19.8418 14.8146C20.252 14.0236 21.4434 12.8322 22.2344 12.422C23.5332 11.7385 25.0273 11.5627 26.4043 11.9142Z" fill="white"/>
</svg>
