<svg width="50" height="50" viewBox="0 0 50 50" fill="none" xmlns="http://www.w3.org/2000/svg">
<path d="M23.9716 0.136852C23.1513 0.34193 22.5361 0.693493 21.9111 1.31849C20.9052 2.32435 20.6025 3.22279 20.6025 5.25404V6.49427L19.8407 6.77748C15.2509 8.4767 11.745 12.2365 10.4364 16.8947C9.97746 18.4962 9.94817 18.9259 9.86028 23.5353C9.77239 28.34 9.72356 28.9552 9.16692 31.2501C8.56145 33.7208 7.45793 36.2306 6.02239 38.3986C5.39739 39.3458 4.83098 40.0685 3.3759 41.7482C2.78996 42.4318 3.00481 43.5353 3.80559 43.9454C4.17668 44.131 4.36223 44.1408 11.0126 44.1408H17.8486L17.9072 44.4728C18.1611 45.8302 19.3525 47.588 20.7001 48.5841C21.2958 49.0236 22.37 49.5412 23.1415 49.7658C23.9325 49.9904 25.8564 50.0197 26.6572 49.8146C29.1181 49.1994 31.1591 47.3244 31.9013 45.0099L32.1747 44.1408H38.9911C45.622 44.1408 45.8173 44.131 46.1884 43.9454C46.4423 43.8185 46.6474 43.6134 46.7743 43.3595C47.1454 42.6369 46.9989 42.1193 46.1982 41.2599C43.7079 38.5939 41.7255 34.9122 40.8271 31.2501C40.2704 28.9845 40.2118 28.3497 40.1337 23.5353C40.0458 18.9162 40.0165 18.506 39.5575 16.8849C38.2587 12.2462 34.5868 8.33021 30.0556 6.72865L29.3915 6.49427V5.25404C29.3915 3.23256 29.0888 2.32435 28.0732 1.30873C26.9794 0.205212 25.4462 -0.234241 23.9716 0.136852ZM25.6806 3.12513C26.2665 3.42787 26.4618 3.88685 26.4618 5.00013V5.90834H24.997H23.5322V4.9806C23.5419 3.88685 23.6884 3.51576 24.2743 3.1642C24.7431 2.88099 25.1728 2.87123 25.6806 3.12513ZM26.7548 8.93568C28.1611 9.15052 29.0302 9.42397 30.3193 10.049C33.7665 11.7384 36.1005 14.7365 36.9599 18.5548C37.0966 19.1505 37.1454 20.1271 37.204 23.7306C37.2724 27.4415 37.3114 28.379 37.4775 29.4435C38.1025 33.4083 39.4208 36.8556 41.5302 40.0099C41.9111 40.5861 42.2529 41.0939 42.2626 41.1329C42.2822 41.1818 34.5087 41.2111 24.997 41.2111C15.4853 41.2111 7.71184 41.1818 7.73137 41.1329C7.7509 41.0939 8.08293 40.5861 8.46379 40.0099C10.5634 36.8654 11.9013 33.3693 12.5165 29.4533C12.6825 28.3888 12.7216 27.4318 12.79 23.7306C12.8486 20.1271 12.8974 19.1505 13.0341 18.5548C13.581 16.1134 14.6747 14.1115 16.3935 12.3927C17.4775 11.3185 18.4736 10.6154 19.8603 9.95131C21.9989 8.93568 24.4306 8.57435 26.7548 8.93568ZM29.0986 44.1994C29.0986 44.4435 28.3857 45.5079 27.9755 45.879C26.2665 47.4415 23.7665 47.4611 22.0575 45.9279C21.5986 45.5079 21.0712 44.7658 20.9443 44.3556L20.8857 44.1408H24.9872C27.2529 44.1408 29.0986 44.1701 29.0986 44.1994Z" fill="white"/>
<path d="M9.72478 5.26367C9.41228 5.47852 8.22087 6.76758 7.56657 7.61719C5.1154 10.8008 3.49431 14.9316 3.13298 18.9453C2.97673 20.6445 2.99626 21.2305 3.22087 21.6797C3.44548 22.1191 4.00212 22.4609 4.4904 22.4609C5.34977 22.4609 5.95524 21.7383 5.95524 20.7129C5.95524 19.8438 6.13103 18.2324 6.35563 17.1387C6.97087 14.0918 8.5822 10.8398 10.6037 8.56445C11.8537 7.16797 11.9123 7.07031 11.9123 6.50391C11.9123 5.94727 11.7072 5.55664 11.2677 5.26367C10.8869 5.00977 10.1056 5.01953 9.72478 5.26367Z" fill="white"/>
<path d="M38.7305 5.26367C38.291 5.55664 38.0859 5.94727 38.0859 6.51367C38.0859 7.07031 38.1055 7.09961 39.4336 8.61328C41.4453 10.8984 43.0371 14.1211 43.6426 17.1387C43.8672 18.2324 44.043 19.8438 44.043 20.7129C44.043 21.7383 44.6484 22.4609 45.5078 22.4609C45.9961 22.4609 46.5527 22.1191 46.7773 21.6797C47.002 21.2402 47.0215 20.6348 46.875 18.9941C46.4941 14.8926 44.8242 10.6641 42.3438 7.51953C41.5723 6.54297 40.6543 5.53711 40.3125 5.29297C39.9023 5.00977 39.1406 5 38.7305 5.26367Z" fill="white"/>
</svg>
