<svg width="50" height="50" viewBox="0 0 50 50" fill="none" xmlns="http://www.w3.org/2000/svg">
<path d="M5.39062 15.8984L5.41992 30.2246L5.68359 31.1816C6.16211 32.9296 6.91406 34.2871 8.33008 36.0058C11.6504 40.0097 15.4102 43.2324 19.9219 45.9277C21.2695 46.7285 24.5801 48.3789 24.8047 48.3691C25.0977 48.3398 27.8516 47.0703 29.248 46.3086C32.6562 44.4628 35.2441 42.5683 37.8809 39.9902C40.8984 37.041 42.9492 34.2382 43.6426 32.1289C44.1992 30.4199 44.1699 31.2402 44.209 15.9277C44.2285 8.17379 44.2285 1.76754 44.1992 1.69918C44.1699 1.61129 43.7305 1.75777 42.6562 2.20699C37.5293 4.36519 34.6582 4.873 31.377 4.20894C29.541 3.82808 27.1875 2.92965 25.5566 1.98238L24.8047 1.54293L24.1406 1.94332C22.4219 2.97847 19.9707 3.95504 18.0664 4.35543C16.8164 4.6191 14.5508 4.59957 13.0859 4.3066C11.6992 4.03316 9.58008 3.3398 7.71484 2.54879C6.93359 2.21675 6.09375 1.85543 5.83008 1.75777L5.37109 1.56246L5.39062 15.8984ZM25.4102 6.01558C26.9629 6.8066 29.7754 7.6855 31.582 7.95894C34.082 8.33004 37.4805 7.98824 39.9902 7.12886L40.5273 6.94332V18.1738C40.5273 30.4101 40.5371 30.1367 39.9707 31.4941C39.4043 32.8613 37.5 35.2539 35.293 37.4023C32.5781 40.0293 29.7949 41.9921 26.3281 43.7011L24.873 44.4238L23.9844 43.9746C22.0996 43.0273 19.8145 41.6113 18.0273 40.2636C14.668 37.7343 10.791 33.6914 9.80469 31.6894C8.97461 30 9.04297 31.0546 9.00391 18.3203C8.98438 7.51949 8.98438 7.01168 9.15039 7.0605C12.0215 7.90035 13.1738 8.11519 15.2832 8.17379C16.5723 8.21285 17.1875 8.19332 18.0078 8.0566C19.9805 7.75386 22.4219 6.97261 24.1016 6.10347C24.4629 5.91793 24.7949 5.77144 24.834 5.76168C24.873 5.76168 25.1367 5.87886 25.4102 6.01558Z" fill="white"/>
<path d="M28.1738 21.1914L22.8027 26.5625L19.8242 23.584L16.8457 20.6055L15.5469 21.9043L14.2578 23.1934L18.5352 27.4707L22.8027 31.7383L29.4727 25.0684L36.1328 18.4082L34.834 17.1094L33.5449 15.8203L28.1738 21.1914Z" fill="white"/>
</svg>
