<svg width="60" height="60" viewBox="0 0 60 60" fill="none" xmlns="http://www.w3.org/2000/svg">
<g clip-path="url(#clip0_455_142)">
<path d="M28.3008 8.83611C25.957 9.29314 23.8594 10.5353 22.4766 12.2931C18.4805 17.3205 20.2031 24.5275 26.0508 27.2463C26.7891 27.5978 26.8477 27.6447 26.5312 27.6447C25.9453 27.6564 24.0117 28.1838 22.8516 28.6525C22.2539 28.8869 21.7617 29.0627 21.75 29.0392C20.7773 27.6916 19.5938 26.4728 18.5977 25.7931C17.8008 25.2541 16.2539 24.551 15.3516 24.3166C14.9297 24.1994 14.5078 24.0939 14.4141 24.0588C14.3086 24.0236 14.4961 23.8713 14.9062 23.6486C19.2891 21.2931 19.6523 15.0588 15.5508 12.176C14.4258 11.3908 13.1836 10.9924 11.7773 10.9806C9.82031 10.9806 8.34375 11.5666 6.96094 12.9494C4.86328 15.0236 4.34766 18.0002 5.63672 20.7072C6.11719 21.715 7.60547 23.2385 8.55469 23.6955L9.1875 24.0002L8.67188 24.1291C6.26953 24.7385 4.74609 25.5822 3.16406 27.176C1.79297 28.547 0.890625 30.1525 0.316406 32.1681C0.117188 32.8713 0.0820312 33.4689 0.0351562 36.34L-0.0234375 39.6916L0.269531 40.0314L0.5625 40.3713L6.85547 40.4064L13.1484 40.4416L13.0664 40.8166C12.9609 41.297 12.8438 50.3205 12.9375 50.6955C13.1133 51.3635 12.2461 51.3283 29.9883 51.3283C41.6836 51.3283 46.3594 51.2931 46.5586 51.1994C47.1211 50.9416 47.1328 50.8595 47.0742 45.8674C47.0391 43.301 46.9805 41.0158 46.9336 40.8166L46.8516 40.4416L53.1445 40.4064L59.4375 40.3713L59.7188 40.0431C60 39.715 60 39.7033 60 36.8674C60 33.6681 59.8711 32.6252 59.2969 31.0197C58.7695 29.5666 57.8906 28.2306 56.7188 27.0705C55.2188 25.5822 53.6602 24.7385 51.3281 24.1408L50.8125 24.0002L51.4453 23.6955C52.3828 23.2502 53.8711 21.715 54.3516 20.7189C55.6523 18.0353 55.1484 15.0588 53.0273 12.9494C51.6562 11.5783 50.1914 10.9806 48.2227 10.9806C44.543 11.0041 41.5898 13.9572 41.5898 17.6252C41.5781 18.926 41.7305 19.5939 42.2812 20.7424C42.7969 21.8205 44.0156 23.0861 45.0586 23.6369C45.4805 23.8595 45.6914 24.0353 45.5859 24.0588C45.4922 24.0939 45.0703 24.1994 44.6484 24.3166C43.7461 24.551 42.1992 25.2541 41.4023 25.7931C40.6289 26.3205 39.3281 27.5861 38.7539 28.3595C38.4961 28.7111 38.2734 29.0275 38.25 29.051C38.2266 29.0744 37.8281 28.9338 37.3477 28.7345C36.2344 28.2658 34.6875 27.8205 33.8086 27.715L33.1055 27.6213L33.9492 27.2463C36.6094 26.0275 38.4609 23.883 39.3281 21.0119C39.5977 20.1213 39.6445 19.7697 39.6445 18.3986C39.6445 17.0275 39.5977 16.676 39.3281 15.7853C38.4727 12.9494 36.668 10.8166 34.1016 9.63298C33.5508 9.37517 32.7656 9.0822 32.3438 8.97673C31.2891 8.7072 29.3203 8.63689 28.3008 8.83611ZM31.4883 10.7228C34.3477 11.2619 36.7969 13.5588 37.5703 16.4064C37.8164 17.3322 37.8516 19.2541 37.6289 20.1564C37.5469 20.508 37.2422 21.2931 36.9609 21.8908C36.2227 23.426 35.0625 24.5744 33.5039 25.3361C32.1211 26.0158 31.4062 26.1799 30 26.1799C28.6992 26.1799 27.9258 26.0158 26.7539 25.4767C24.6328 24.5158 23.0391 22.6408 22.4297 20.3791C22.1484 19.3713 22.1484 17.426 22.4297 16.4064C23.0156 14.2502 24.5156 12.4103 26.4844 11.4377C28.1953 10.5939 29.6836 10.383 31.4883 10.7228ZM12.6914 12.9494C15.2344 13.4885 16.8398 15.8088 16.5 18.4455C16.1484 21.047 13.4648 23.0041 10.8867 22.5236C7.64062 21.926 5.88281 18.4572 7.32422 15.5158C8.0625 14.0041 9.85547 12.8791 11.6602 12.7853C11.7891 12.7853 12.2578 12.8556 12.6914 12.9494ZM49.0312 12.8908C51.7148 13.3244 53.5664 15.8556 53.1211 18.4689C52.6523 21.1642 50.1797 22.9689 47.5547 22.5236C45.4453 22.1603 43.7812 20.4728 43.5 18.422C43.2773 16.84 43.7578 15.3986 44.8828 14.2853C45.6445 13.5119 46.2773 13.1603 47.2734 12.9494C48.1758 12.7502 48.1992 12.7502 49.0312 12.8908ZM12.2461 26.0392C12.2695 26.1916 12.4805 27.6799 12.7148 29.3556C12.9375 31.0314 13.1484 32.5197 13.1719 32.672C13.1953 32.8713 13.0195 33.176 12.5039 33.7853C12.1172 34.2541 11.7539 34.6291 11.6836 34.6291C11.625 34.6291 11.2617 34.2541 10.875 33.7853L10.1719 32.9416L10.6758 29.3674L11.168 25.7814H11.6719C12.1055 25.7814 12.1875 25.8166 12.2461 26.0392ZM49.3242 29.3674L49.8281 32.9416L49.125 33.7853C48.7383 34.2541 48.375 34.6291 48.3164 34.6291C48.2461 34.6291 47.8828 34.2541 47.4961 33.7853C46.9805 33.176 46.8047 32.8713 46.8281 32.672C46.8516 32.5197 47.0625 31.0314 47.2852 29.3556C47.8242 25.4064 47.7188 25.7814 48.3281 25.7814H48.832L49.3242 29.3674ZM8.77734 29.3674C8.51953 31.2306 8.29688 32.9416 8.28516 33.176C8.27344 33.5627 8.41406 33.7736 9.70312 35.3088C10.4883 36.2345 11.2148 37.0314 11.3203 37.0783C11.6133 37.1955 12 37.1486 12.2109 36.9963C12.6562 36.6564 15.1172 33.5627 15.1172 33.34C15.1172 33.2111 14.9062 31.5353 14.6367 29.6135C14.3672 27.6916 14.1914 26.0861 14.2266 26.0392C14.3672 25.9103 15.3867 26.2385 16.4648 26.7658C17.7305 27.3869 18.8672 28.301 19.6055 29.2853L20.1445 30.0119L19.2422 30.7033C17.0039 32.3791 15.1172 34.84 14.0625 37.4416L13.6289 38.4963L9.97266 38.5314L6.32812 38.5549V35.9767V33.3869L6.03516 33.1056C5.69531 32.7541 5.16797 32.7306 4.79297 33.0353C4.51172 33.258 4.51172 33.2814 4.47656 35.9064L4.44141 38.5549H3.15234H1.875V36.2697C1.875 33.7033 2.01562 32.7189 2.58984 31.3244C3.62109 28.84 5.88281 26.8595 8.49609 26.1213C8.88281 26.0158 9.21094 25.9338 9.22266 25.9572C9.24609 25.9689 9.04688 27.5041 8.77734 29.3674ZM52.8164 26.6017C55.2305 27.6916 57.082 29.883 57.832 32.5197C57.9844 33.0588 58.0547 33.8674 58.0898 35.883L58.1484 38.5549H56.8594H55.5586L55.5234 35.9064C55.4883 33.2814 55.4883 33.258 55.207 33.0353C54.832 32.7306 54.3047 32.7541 53.9648 33.1056L53.6719 33.3869V35.9767V38.5549L50.0156 38.5314L46.3711 38.4963L45.8789 37.3244C44.7891 34.7111 42.9961 32.3791 40.7578 30.7033L39.8555 30.0119L40.3945 29.2853C41.1328 28.301 42.2695 27.3869 43.5352 26.7658C44.6133 26.2385 45.6328 25.9103 45.7734 26.0392C45.8086 26.0861 45.6328 27.6916 45.3633 29.6135C45.0938 31.5353 44.8828 33.2111 44.8828 33.34C44.8828 33.5627 47.3438 36.6564 47.7891 36.9963C48 37.1486 48.3867 37.1955 48.6797 37.0783C48.7852 37.0314 49.5117 36.2463 50.2852 35.3205C51.5625 33.8088 51.7031 33.5861 51.7031 33.1877C51.6914 32.9533 51.4805 31.2306 51.2227 29.3674C50.9531 27.4924 50.7422 25.9572 50.7422 25.9455C50.7422 25.8635 52.207 26.3205 52.8164 26.6017ZM31.2188 29.6135C31.2773 29.9299 32.6719 39.9845 32.7305 40.5119C32.7422 40.6877 32.3438 41.2619 31.4297 42.3635C30.6914 43.2306 30.0469 43.9455 30 43.9455C29.9531 43.9455 29.3086 43.2306 28.5703 42.3635C27.6562 41.2619 27.2578 40.6877 27.2695 40.5119C27.3281 39.9845 28.7227 29.9299 28.7812 29.6135L28.8516 29.297H30H31.1484L31.2188 29.6135ZM26.8359 29.7189C26.8359 29.8361 26.4844 32.4142 26.0625 35.4728C25.6406 38.5314 25.3242 41.1447 25.3594 41.2853C25.3945 41.426 26.332 42.6213 27.457 43.9455L29.4844 46.3478H30H30.5156L32.543 43.9455C33.668 42.6213 34.6055 41.426 34.6406 41.2853C34.6758 41.1447 34.3594 38.5314 33.9375 35.4728C33.5156 32.4142 33.1641 29.8361 33.1641 29.7189C33.1641 29.4611 33.3984 29.4845 34.7578 29.8361C36.1406 30.1877 37.9805 31.0431 39.2227 31.8986C41.6133 33.551 43.6641 36.2931 44.5195 39.0236C45.1172 40.8752 45.1523 41.2267 45.1992 45.4338L45.2578 49.4533H42.7266H40.207L40.3242 49.1252C40.3945 48.926 40.4297 47.3088 40.4062 45.0705L40.3711 41.3439L40.0898 41.1213C39.7266 40.8283 39.0938 40.8283 38.7891 41.133C38.5547 41.3674 38.543 41.4845 38.5781 45.4103L38.6133 49.4533H30H21.3867L21.4219 45.4103C21.457 41.4845 21.4453 41.3674 21.2109 41.133C20.9062 40.8283 20.2734 40.8283 19.9102 41.1213L19.6289 41.3439L19.5938 45.0705C19.5703 47.3088 19.6055 48.926 19.6758 49.1252L19.793 49.4533H17.2734H14.7422L14.8008 45.4338C14.8477 41.2267 14.9062 40.7111 15.4922 38.965C17.0039 34.4416 20.707 31.008 25.4297 29.7775C26.543 29.4845 26.8359 29.4728 26.8359 29.7189Z" fill="white"/>
</g>
<defs>
<clipPath id="clip0_455_142">
<rect width="60" height="60" fill="white"/>
</clipPath>
</defs>
</svg>
