<svg width="50" height="50" viewBox="0 0 50 50" fill="none" xmlns="http://www.w3.org/2000/svg">
<g clip-path="url(#clip0_455_183)">
<path d="M23.0464 0.253902C21.4448 0.449215 20.8979 0.52734 19.8921 0.732418C15.7612 1.58203 11.6011 3.65234 8.5835 6.35742C3.90576 10.5469 1.17139 15.6152 0.233887 21.7773C-0.0102539 23.3789 -0.0102539 26.9727 0.233887 28.5156C1.17139 34.4824 3.60303 39.2676 7.67529 43.1543C11.0933 46.416 15.0093 48.5352 19.5503 49.5703C20.1265 49.6973 20.7612 49.8047 20.9663 49.8047C21.9722 49.7949 22.9487 48.8184 22.9487 47.8027C22.9487 47.1582 22.4507 46.3379 21.8647 46.0449C21.7183 45.9668 21.1714 45.8105 20.6343 45.6934C12.5581 43.9551 6.30811 37.7246 4.54053 29.6387C4.18896 28.0469 4.08154 26.9043 4.08154 25C4.08154 21.7969 4.71631 19.0234 6.11279 16.123C9.2085 9.69726 15.1362 5.41992 22.3628 4.38476C23.603 4.20898 26.689 4.23828 27.978 4.43359C30.8882 4.88281 33.3687 5.78125 35.8198 7.24609L36.6206 7.72461L35.7417 9.01367C35.2632 9.71679 34.8628 10.3906 34.8628 10.498C34.8628 10.6152 34.9507 10.791 35.0581 10.8887C35.2437 11.0547 35.3804 11.0547 38.7886 10.7519C40.7417 10.5762 42.4507 10.4199 42.6069 10.3906C43.0073 10.3125 43.437 9.90234 43.5054 9.53125C43.5542 9.28711 43.3198 8.30078 42.5776 5.65429C42.0405 3.70117 41.5229 2.03125 41.4351 1.93359C41.2202 1.68945 40.8979 1.70898 40.6538 1.97265C40.5464 2.09961 40.1362 2.65625 39.7456 3.22265C39.355 3.78906 39.0034 4.28711 38.9644 4.32617C38.9253 4.375 38.6519 4.25781 38.3687 4.07226C35.5171 2.24609 32.0894 0.976559 28.6128 0.439449C27.6362 0.283199 23.8276 0.156246 23.0464 0.253902Z" fill="white"/>
<path d="M22.9395 9.20907C22.7637 9.32626 22.5098 9.58016 22.3926 9.75594L22.168 10.088V18.4473L22.1777 26.8067L29.6191 30.6446C33.8672 32.8419 37.2168 34.5118 37.4219 34.5411C37.998 34.629 38.4473 34.4923 38.8184 34.1309C39.4629 33.4864 39.4824 32.4708 38.8574 31.8751C38.7012 31.7286 35.625 30.0782 32.0117 28.213L25.4395 24.8145L25.3906 17.4024L25.3418 9.99032L25.0684 9.63876C24.9219 9.44344 24.668 9.20907 24.5117 9.13094C24.082 8.90633 23.3301 8.9454 22.9395 9.20907Z" fill="white"/>
<path d="M45.555 14.8339C44.7737 15.1855 44.2659 16.0448 44.3636 16.8358C44.4319 17.4218 44.9983 18.9159 45.2815 19.248C46.1018 20.2245 47.7132 20.1464 48.4554 19.0917C48.885 18.4765 48.9143 17.9003 48.553 16.8554C48.1038 15.5858 47.8499 15.205 47.2444 14.9023C46.6487 14.5995 46.1018 14.58 45.555 14.8339Z" fill="white"/>
<path d="M47.4225 22.3634C47.0124 22.4903 46.5436 22.8419 46.2799 23.2228C46.0749 23.5353 46.0456 23.6915 46.0163 24.7462C45.9772 26.045 46.0651 26.4942 46.4557 26.9532C47.3053 27.9689 48.8776 27.881 49.6491 26.7774C49.9225 26.3966 49.9518 26.2794 49.9811 25.3712C50.0397 24.004 49.8932 23.4278 49.3854 22.9103C48.819 22.3536 48.1256 22.1583 47.4225 22.3634Z" fill="white"/>
<path d="M45.8872 30.3513C45.3599 30.6931 45.2134 30.8982 44.8814 31.8259C44.354 33.281 44.3736 33.9158 44.94 34.6189C45.8384 35.6931 47.5865 35.5466 48.2115 34.3357C48.5044 33.7693 48.9244 32.4119 48.9244 32.031C48.9244 30.8982 48.065 30.0779 46.8931 30.0779C46.4341 30.0779 46.2388 30.1365 45.8872 30.3513Z" fill="white"/>
<path d="M42.5178 37.1974C42.0686 37.4025 41.053 38.545 40.721 39.2189C40.1252 40.4298 40.9456 41.9435 42.2639 42.0704C43.1917 42.1583 43.719 41.8361 44.6663 40.5958C45.3108 39.756 45.4963 39.1603 45.3206 38.4962C45.1838 38.0079 44.6663 37.3927 44.1975 37.1681C43.7581 36.963 43.0159 36.9728 42.5178 37.1974Z" fill="white"/>
<path d="M36.6908 42.6173C35.4017 43.3107 34.8158 43.838 34.5912 44.5216C34.0638 46.0548 35.7435 47.549 37.2669 46.9142C37.8919 46.6603 39.1029 45.8107 39.3275 45.4786C39.6107 45.0587 39.7279 44.4826 39.6302 43.9454C39.5423 43.4376 39.347 43.1544 38.8294 42.7345C38.5267 42.4806 38.3705 42.4318 37.8138 42.4025C37.2572 42.3732 37.0912 42.4025 36.6908 42.6173Z" fill="white"/>
<path d="M29.248 45.7129C28.8184 45.8105 28.3691 45.9473 28.2422 46.0156C27.6758 46.3086 27.1582 47.1191 27.1484 47.7051C27.1484 48.8086 28.0957 49.8047 29.1504 49.8047C29.4922 49.8047 31.1621 49.4141 31.4355 49.2773C32.8613 48.5352 32.8711 46.4844 31.4551 45.7324C30.9277 45.459 30.332 45.4492 29.248 45.7129Z" fill="white"/>
</g>
<defs>
<clipPath id="clip0_455_183">
<rect width="50" height="50" fill="white"/>
</clipPath>
</defs>
</svg>
