<svg width="60" height="34" viewBox="0 0 60 34" fill="none" xmlns="http://www.w3.org/2000/svg">
<path d="M0.375 0.384182L0 0.744183V15.0092V29.2742L0.375 29.6342L0.735 30.0092H4.035H7.335L7.695 30.8042C8.145 31.7942 8.91 32.5742 9.945 33.1142C10.62 33.4742 10.905 33.5342 12 33.5342C13.095 33.5342 13.38 33.4742 14.055 33.1142C15.09 32.5742 15.855 31.7942 16.305 30.8042L16.665 30.0092H30.6H44.535L44.895 30.8042C45.345 31.7942 46.11 32.5742 47.145 33.1142C47.82 33.4742 48.105 33.5342 49.2 33.5342C50.295 33.5342 50.58 33.4742 51.255 33.1142C52.29 32.5742 53.055 31.7942 53.505 30.8042L53.865 30.0092H56.565C59.235 30.0092 59.265 30.0092 59.625 29.6342L60 29.2742V22.7792V16.2842L56.055 12.3542L52.125 8.40918H46.455H40.8V4.58418V0.744183L40.425 0.384182L40.065 0.00918198H20.4H0.735L0.375 0.384182ZM38.4 11.4092V20.4092H20.4H2.4V11.4092V2.40918H20.4H38.4V11.4092ZM48 15.2342V19.6742L48.375 20.0342L48.735 20.4092H53.175H57.6V24.0092V27.6092H55.725H53.865L53.565 26.9192C53.085 25.8542 52.44 25.1492 51.42 24.5942C50.55 24.1292 50.37 24.0842 49.2 24.0842C48.105 24.0842 47.82 24.1442 47.145 24.5042C46.11 25.0442 45.345 25.8242 44.895 26.8142L44.535 27.6092H42.66H40.8V19.2092V10.8092H44.4H48V15.2342ZM54.33 14.0642C56.655 16.3892 57.6 17.4242 57.6 17.6642V18.0092H54H50.4V14.4092V10.8092H50.73C50.97 10.8092 52.02 11.7692 54.33 14.0642ZM38.4 25.2092V27.6092H27.525H16.665L16.365 26.9192C15.885 25.8542 15.24 25.1492 14.22 24.5942C13.35 24.1292 13.17 24.0842 12 24.0842C10.905 24.0842 10.62 24.1442 9.945 24.5042C8.91 25.0442 8.145 25.8242 7.695 26.8142L7.335 27.6092H4.86H2.4V25.2092V22.8092H20.4H38.4V25.2092ZM12.945 26.6192C14.49 27.2642 14.865 29.2742 13.665 30.4742C12.69 31.4492 11.31 31.4492 10.335 30.4742C8.475 28.6292 10.53 25.5992 12.945 26.6192ZM50.145 26.6192C51.69 27.2642 52.065 29.2742 50.865 30.4742C49.89 31.4492 48.51 31.4492 47.535 30.4742C45.675 28.6292 47.73 25.5992 50.145 26.6192Z" fill="white"/>
</svg>
