<svg width="20" height="20" viewBox="0 0 20 20" fill="none" xmlns="http://www.w3.org/2000/svg">
<path d="M15.625 6.25H15.5875C15.4285 4.87964 14.7714 3.6155 13.7412 2.69796C12.711 1.78041 11.3796 1.27344 10 1.27344C8.62044 1.27344 7.28899 1.78041 6.2588 2.69796C5.22861 3.6155 4.57153 4.87964 4.4125 6.25H4.375C3.5462 6.25 2.75134 6.57924 2.16529 7.16529C1.57924 7.75134 1.25 8.5462 1.25 9.375C1.25 10.2038 1.57924 10.9987 2.16529 11.5847C2.75134 12.1708 3.5462 12.5 4.375 12.5H5.625V6.875C5.625 5.71468 6.08594 4.60188 6.90641 3.78141C7.72688 2.96094 8.83968 2.5 10 2.5C11.1603 2.5 12.2731 2.96094 13.0936 3.78141C13.9141 4.60188 14.375 5.71468 14.375 6.875V13.125C14.3746 13.6976 14.1776 14.2528 13.817 14.6976C13.4563 15.1424 12.9539 15.4499 12.3937 15.5688C12.2269 14.9836 11.8524 14.4794 11.3404 14.1506C10.8284 13.8218 10.2141 13.6911 9.61257 13.7828C9.01106 13.8746 8.46367 14.1826 8.07298 14.649C7.68229 15.1155 7.47514 15.7085 7.49035 16.3167C7.50555 16.925 7.74208 17.5069 8.15558 17.9532C8.56909 18.3996 9.1312 18.6798 9.73654 18.7414C10.3419 18.803 10.9489 18.6417 11.4438 18.2877C11.9388 17.9338 12.2876 17.4115 12.425 16.8188C13.3119 16.6873 14.1223 16.2424 14.7093 15.5647C15.2964 14.8871 15.6212 14.0216 15.625 13.125V12.5C16.4538 12.5 17.2487 12.1708 17.8347 11.5847C18.4208 10.9987 18.75 10.2038 18.75 9.375C18.75 8.5462 18.4208 7.75134 17.8347 7.16529C17.2487 6.57924 16.4538 6.25 15.625 6.25ZM2.5 9.375C2.5 8.87772 2.69754 8.40081 3.04917 8.04918C3.40081 7.69755 3.87772 7.5 4.375 7.5V11.25C3.87772 11.25 3.40081 11.0525 3.04917 10.7008C2.69754 10.3492 2.5 9.87228 2.5 9.375V9.375ZM10 17.5C9.75277 17.5 9.5111 17.4267 9.30554 17.2893C9.09998 17.152 8.93976 16.9568 8.84515 16.7284C8.75054 16.4999 8.72579 16.2486 8.77402 16.0061C8.82225 15.7637 8.9413 15.5409 9.11612 15.3661C9.29093 15.1913 9.51366 15.0723 9.75614 15.024C9.99861 14.9758 10.2499 15.0005 10.4784 15.0952C10.7068 15.1898 10.902 15.35 11.0393 15.5555C11.1767 15.7611 11.25 16.0028 11.25 16.25C11.25 16.5815 11.1183 16.8995 10.8839 17.1339C10.6495 17.3683 10.3315 17.5 10 17.5V17.5ZM15.625 11.25V7.5C16.1223 7.5 16.5992 7.69755 16.9508 8.04918C17.3025 8.40081 17.5 8.87772 17.5 9.375C17.5 9.87228 17.3025 10.3492 16.9508 10.7008C16.5992 11.0525 16.1223 11.25 15.625 11.25V11.25Z" fill="white"/>
</svg>
