<svg width="20" height="20" viewBox="0 0 20 20" fill="none" xmlns="http://www.w3.org/2000/svg">
<path d="M16.2481 18.125H16.1419C3.86064 17.4188 2.11689 7.05625 1.87314 3.89375C1.8535 3.64786 1.88257 3.40052 1.95869 3.16588C2.0348 2.93125 2.15647 2.71394 2.31671 2.52641C2.47696 2.33888 2.67263 2.1848 2.89252 2.07302C3.11241 1.96124 3.3522 1.89395 3.59814 1.875H7.04189C7.29224 1.87476 7.53689 1.94969 7.74416 2.0901C7.95143 2.23051 8.11176 2.42992 8.20439 2.6625L9.15439 5C9.24586 5.22722 9.26856 5.4763 9.21967 5.71631C9.17078 5.95631 9.05245 6.17667 8.87939 6.35L7.54814 7.69375C7.75609 8.87547 8.322 9.96479 9.16933 10.8143C10.0166 11.6639 11.1045 12.2327 12.2856 12.4437L13.6419 11.1C13.8178 10.9288 14.0403 10.8133 14.2814 10.7677C14.5226 10.7221 14.7719 10.7486 14.9981 10.8438L17.3544 11.7875C17.5835 11.8831 17.7789 12.0446 17.9158 12.2517C18.0527 12.4587 18.1249 12.7018 18.1231 12.95V16.25C18.1231 16.7473 17.9256 17.2242 17.574 17.5758C17.2223 17.9275 16.7454 18.125 16.2481 18.125ZM3.74814 3.125C3.58238 3.125 3.42341 3.19085 3.3062 3.30806C3.18899 3.42527 3.12314 3.58424 3.12314 3.75V3.8C3.41064 7.5 5.25439 16.25 16.2106 16.875C16.2927 16.8801 16.3751 16.8689 16.4528 16.8421C16.5306 16.8153 16.6023 16.7734 16.6639 16.7188C16.7254 16.6642 16.7756 16.598 16.8115 16.524C16.8474 16.45 16.8684 16.3696 16.8731 16.2875V12.95L14.5169 12.0062L12.7231 13.7875L12.4231 13.75C6.98564 13.0687 6.24814 7.63125 6.24814 7.575L6.21064 7.275L7.98564 5.48125L7.04814 3.125H3.74814Z" fill="white"/>
</svg>
