<svg width="20" height="20" viewBox="0 0 20 20" fill="none" xmlns="http://www.w3.org/2000/svg">
<path d="M16.25 11.25H12.5V9.31142C12.5172 8.45745 12.7677 7.62444 13.2242 6.90254C13.6836 6.13111 13.8496 5.22001 13.692 4.33611C13.5343 3.45222 13.0635 2.65471 12.3658 2.08967C11.8621 1.67904 11.2603 1.40642 10.6195 1.29857C9.97867 1.19071 9.32082 1.25132 8.71049 1.47445C8.10016 1.69759 7.55833 2.07557 7.13818 2.57131C6.71803 3.06705 6.43399 3.66352 6.31394 4.30217C6.1415 5.19983 6.30802 6.12954 6.78131 6.91154C7.2299 7.60946 7.47848 8.41704 7.5 9.24642V11.25H3.75C3.41858 11.2504 3.10083 11.3822 2.86648 11.6165C2.63213 11.8509 2.50033 12.1686 2.5 12.5V15C2.50041 15.3314 2.63224 15.6491 2.86657 15.8835C3.1009 16.1178 3.41861 16.2496 3.75 16.25V17.5C3.75041 17.8314 3.88224 18.1491 4.11657 18.3835C4.3509 18.6178 4.66861 18.7496 5 18.75H15C15.3314 18.7496 15.6491 18.6178 15.8834 18.3835C16.1178 18.1491 16.2496 17.8314 16.25 17.5V16.25C16.5814 16.2496 16.8991 16.1178 17.1334 15.8835C17.3678 15.6491 17.4996 15.3314 17.5 15V12.5C17.4997 12.1686 17.3679 11.8509 17.1335 11.6165C16.8992 11.3822 16.5814 11.2504 16.25 11.25ZM7.54375 4.52754C7.61092 4.16874 7.75587 3.82901 7.9684 3.53222C8.18092 3.23543 8.45588 2.98879 8.77393 2.80964C9.09198 2.63049 9.44541 2.52317 9.80937 2.49523C10.1733 2.46729 10.539 2.51941 10.8807 2.64792C11.2223 2.77643 11.5317 2.97821 11.7871 3.23909C12.0424 3.49996 12.2375 3.81359 12.3586 4.15794C12.4798 4.50229 12.524 4.86899 12.4883 5.23227C12.4526 5.59555 12.3377 5.9466 12.1518 6.26073C11.6872 7.01796 11.3936 7.86753 11.2915 8.75004H8.7125C8.61405 7.86856 8.32026 7.02014 7.8525 6.26654C7.5379 5.74507 7.42789 5.12544 7.54375 4.52754V4.52754ZM11.25 10V11.25H8.75V10H11.25ZM15 17.5H5V16.25H15V17.5ZM3.75 15V12.5H16.25V15H3.75Z" fill="white"/>
</svg>
